<?xml version="1.0" ?><!DOCTYPE svg  PUBLIC '-//W3C//DTD SVG 1.1//EN'  'http://www.w3.org/Graphics/SVG/1.1/DTD/svg11.dtd'><svg enable-background="new 0 0 1010 1010" id="calendar" version="1.1" viewBox="0 0 1010 1010" xml:space="preserve" xmlns="http://www.w3.org/2000/svg" xmlns:xlink="http://www.w3.org/1999/xlink"><g id="calendar-label"><path d="M505,0C226.106,0,0,226.1157,0,504.9805C0,783.8945,226.106,1010,505,1010   c278.875,0,505-226.1055,505-505.0195C1010,226.1157,783.875,0,505,0z" fill="#F6BBBB"/></g><g id="calendar-calendar"><g><g><path d="M546.2578,284.2402l-10.5137,17.2408c52.3536,31.937,137.7696,77.5747,138.628,78.0336l9.5088-17.8232     C683.0322,361.2373,598.1191,315.8716,546.2578,284.2402z" fill="#313233"/><path d="M326.1099,361.6914l9.5083,17.8232c0.8183-0.4394,82.5654-44.104,135.0971-75.8837l-10.455-17.2803     C408.2021,317.8442,326.9287,361.2573,326.1099,361.6914z" fill="#313233"/></g><rect fill="#FED78F" height="60.9454" width="505" x="252.5" y="370.6025"/><rect fill="#FFFFFF" height="348.2822" width="505" x="252.5" y="431.5479"/><path d="M757.5,360.5029h-505c-5.5825,0-10.0996,4.5225-10.0996,10.0996v409.2276    c0,5.583,4.5171,10.1006,10.0996,10.1006h505c5.583,0,10.0996-4.5176,10.0996-10.1006V370.6025    C767.5996,365.0254,763.083,360.5029,757.5,360.5029z M747.4004,380.7031v40.7451H262.6001v-40.7451H747.4004z M262.6001,769.7305    V441.6479h484.8003v328.0826H262.6001z" fill="#313233"/><g><path d="M505.3652,248.6235c-4.7841-10.8496-15.5937-18.4541-28.2187-18.4541     c-16.9649,0-29.1953,14.0454-30.7637,30.7637c0,0-0.8188,4.1426,1.0156,11.6284c2.4854,10.189,8.3448,19.2041,16.2056,26.1182     l41.7612,35.9717l41.0313-35.9717c7.8808-6.9141,13.7002-15.9292,16.2051-26.1182c1.8349-7.4858,0.9863-11.6284,0.9863-11.6284     c-1.5293-16.7183-13.7598-30.7637-30.7344-30.7637C520.2285,230.1694,510.1094,237.7739,505.3652,248.6235z" fill="#F05354"/><path d="M505.3652,344.751c-2.3476,0-4.6953-0.8135-6.5888-2.4458l-41.7613-35.9712     c-9.8335-8.6504-16.521-19.4756-19.4306-31.3804c-1.9429-7.9204-1.5191-13.2807-1.2232-15.2832     c2.2588-22.5967,19.7466-39.6011,40.7852-39.6011c10.6421,0,20.6338,4.1426,28.1001,11.2051     c7.2886-7.1216,17.0239-11.2051,27.6069-11.2051c21.0488,0,38.4971,16.9698,40.7559,39.5371     c0.3349,2.1602,0.749,7.4268-1.1934,15.3575c-2.9395,11.9541-9.6367,22.7788-19.3623,31.3056l-41.0312,35.9766     C510.1191,343.918,507.7422,344.751,505.3652,344.751L505.3652,344.751z M456.2949,262.8711c0.02,0-0.2265,2.6533,0.9175,7.2891     c1.9136,7.871,6.4312,15.1054,13.0591,20.9345l35.0342,30.1768l34.4326-30.1865c6.5986-5.7847,11.1064-13.0245,13.0596-20.9346     c1.1835-4.8233,0.8378-7.4912,0.8378-7.5156c-1.0849-11.5059-8.5019-22.3653-20.7822-22.3653     c-8.0185,0-14.8438,4.6358-18.2363,12.4034c-1.6084,3.6689-5.2285,6.0458-9.2324,6.0507c-0.0098,0-0.0196,0-0.0196,0     c-4.0048,0-7.6245-2.3623-9.2422-6.0263c-3.3237-7.5508-10.7802-12.4278-18.9765-12.4278     c-12.2603,0-19.6973,10.8692-20.7031,21.6055c-0.0396,0.335-0.0889,0.6709-0.1485,1.001     C456.2949,262.8711,456.2949,262.8711,456.2949,262.8711L456.2949,262.8711z" fill="#313233"/></g></g><text fill="#F05354" font-family="'Montserrat-Regular'" font-size="71.2083" transform="matrix(1 0 0 1 297.4473 697.5625)"/><text fill="#313233" font-family="'Montserrat-Regular'" font-size="132.3458" transform="matrix(1 0 0 1 294.4751 601.0078)"/></g></svg>