<?xml version="1.0" ?><!DOCTYPE svg  PUBLIC '-//W3C//DTD SVG 1.1//EN'  'http://www.w3.org/Graphics/SVG/1.1/DTD/svg11.dtd'><svg enable-background="new 0 0 1010 1010" id="heart-chain" version="1.1" viewBox="0 0 1010 1010" xml:space="preserve" xmlns="http://www.w3.org/2000/svg" xmlns:xlink="http://www.w3.org/1999/xlink"><g id="heart-chain-label"><path d="M505,0C226.106,0,0,226.1157,0,504.9805C0,783.8945,226.106,1010,505,1010   c278.875,0,505-226.1055,505-505.0195C1010,226.1157,783.875,0,505,0z" fill="#F6BBBB"/></g><g id="heart-chain-heart-chain"><g><path d="M273.7158,244.7031c-2.8847-7.8266-9.2417-13.7348-18.6953-12.7334    c-8.542,0.833-16.5312,10.3115-13.2417,19.9629c2.6631,9.7793,11.8457,15.3379,20.4019,12.4131    C270.7324,261.4263,275.9453,252.6133,273.7158,244.7031z" fill="#FFFFFF"/><path d="M290.6465,290.5229c-3.3784-7.6933-12.9356-11.0766-21.2754-7.6049    c-8.354,3.4721-11.8457,13.6855-7.7422,22.7793c4.9116,8.5024,15.3565,11.4218,23.0254,6.6923    C292.3774,307.6357,294.9468,297.876,290.6465,290.5229z" fill="#FFFFFF"/><path d="M295.356,329.2168c-7.4615,5.1138-8.8081,15.5591-2.9888,23.3164    c5.6421,7.9102,16.4326,8.8965,23.3369,2.9834c6.8203-5.8486,7.585-15.9043,2.5889-22.9912    C313.0903,325.5771,302.8076,324.1123,295.356,329.2168z" fill="#FFFFFF"/><path d="M328.9453,370.4502c-6.7217,6.1543-6.9682,16.9351-0.0488,23.4844    c6.7807,6.6821,17.2949,6.7412,23.4643,0.1279c6.1646-6.6035,6.0611-17.0088-0.2368-23.208    C345.6738,364.7734,335.5635,364.3936,328.9453,370.4502z" fill="#FFFFFF"/><path d="M390.1768,405.8247c-6.7266-5.8296-16.9844-5.1489-23.001,1.6128    c-6.0069,6.7412-5.1441,17.3296,2.0215,23.5283c7.3632,5.8936,17.8823,4.9219,23.4795-2.1846    C398.2646,421.6846,397.1504,411.3926,390.1768,405.8247z" fill="#FFFFFF"/><path d="M431.3809,437.5742c-7.2154-5.311-17.4878-3.7627-22.9375,3.4424    c-5.459,7.2148-3.7383,17.5864,3.8515,23.1689c7.585,5.5582,18.124,3.6348,23.1787-3.7822    C440.5977,452.8823,438.5957,442.8711,431.3809,437.5742z" fill="#FFFFFF"/><path d="M474.6953,466.6123c-7.5557-4.833-17.6899-2.6436-22.6514,4.9116    c-4.9609,7.5552-2.5839,17.8179,5.3409,22.8828c8.0341,4.8824,18.2822,2.5347,22.873-5.2622    C484.8398,481.3574,482.3491,471.2578,474.6953,466.6123z" fill="#FFFFFF"/><path d="M535.2998,466.6123c-7.6533,4.6504-10.1396,14.7451-5.5625,22.5322    c4.5967,7.7969,14.834,10.1543,22.8828,5.2622c7.9102-5.0551,10.2969-15.3276,5.336-22.8828    C552.9951,463.9687,542.8555,461.7842,535.2998,466.6123z" fill="#FFFFFF"/><path d="M578.6191,437.5742c-7.2197,5.3018-9.2119,15.3081-4.0927,22.8291    c5.0595,7.417,15.584,9.3452,23.1787,3.7822c7.5849-5.5776,9.3105-15.9541,3.8564-23.1689    C596.1074,433.8115,585.8203,432.2681,578.6191,437.5742z" fill="#FFFFFF"/><path d="M619.8281,405.8247c-6.9824,5.5728-8.0879,15.8599-2.5049,22.9565    c5.6026,7.1065,16.1163,8.0831,23.4747,2.1846c7.1611-6.1889,8.0283-16.7871,2.0322-23.5283    C636.8125,400.6758,626.5449,400,619.8281,405.8247z" fill="#FFFFFF"/><path d="M657.8809,370.8545c-6.3124,6.2041-6.4112,16.6045-0.2364,23.208    c6.1641,6.6133,16.669,6.5596,23.4551-0.1279c6.9141-6.5445,6.6768-17.3301-0.04-23.4844    C674.4316,364.3936,664.3223,364.7783,657.8809,370.8545z" fill="#FFFFFF"/><path d="M714.6445,329.2168c-7.4472-5.1045-17.7441-3.6299-22.9326,3.3086    c-5.0107,7.0918-4.2412,17.1426,2.584,22.9912c6.9043,5.9131,17.6953,4.937,23.3369-2.9834    C723.4521,344.7856,722.1104,334.3306,714.6445,329.2168z" fill="#FFFFFF"/><path d="M740.6338,282.918c-8.3447-3.4717-17.9111-0.0786-21.2852,7.6049    c-4.2998,7.3628-1.7256,17.1128,5.9971,21.8667c7.6738,4.7295,18.1094,1.8199,23.0215-6.6923    C752.4697,296.6133,748.9785,286.3901,740.6338,282.918z" fill="#FFFFFF"/><path d="M754.9746,231.9697c-9.4482-1.0014-15.8105,4.9116-18.6904,12.7334    c-2.2295,7.9151,2.9883,16.7232,11.5303,19.6426c8.5615,2.9248,17.7343-2.6235,20.4072-12.4131    C771.5059,242.2915,763.5166,232.8027,754.9746,231.9697z" fill="#FFFFFF"/></g><path d="M505,618.7334c-5.5776,0-10.0996-4.5273-10.0996-10.1006V503.1406c0-5.5776,4.522-10.0996,10.0996-10.0996   c5.5781,0,10.0996,4.522,10.0996,10.0996v105.4922C515.0996,614.2061,510.5781,618.7334,505,618.7334L505,618.7334z" fill="#313233"/><path d="M504.9902,608.6328c0-43.3086,35.0938-78.4219,78.4532-78.4219c43.3086,0,78.4423,35.1133,78.4423,78.4219   c0,22.7158-9.8144,42.9746-25.2011,57.3359l0.1875,0.0489L504.9902,797.9004L373.0591,666.0176   c0.0395-0.0489,0.0786-0.0489,0.1382-0.1084c-15.377-14.3408-25.0826-34.5605-25.0826-57.2764   c0-43.3086,35.0738-78.4219,78.4429-78.4219C469.8374,530.2109,504.9902,565.3242,504.9902,608.6328z" fill="#F05354"/><path d="M504.9902,808c-2.5839,0-5.1684-0.9863-7.1411-2.959L365.918,673.1592   c-0.3946-0.3848-0.7495-0.8096-1.0655-1.253c-17.3198-16.8662-26.8379-39.2558-26.8379-63.2734   c0-48.8125,39.7198-88.5224,88.543-88.5224c34.0186,0,63.6133,19.2822,78.4326,47.4814   c14.8243-28.1992,44.4336-47.4814,78.4532-47.4814c48.8221,0,88.542,39.7099,88.542,88.5224   c0,23.9785-9.5577,46.3877-26.9659,63.333c-0.2959,0.4238-0.6318,0.8281-1.0058,1.1934L512.1309,805.041   C510.1582,807.0137,507.5742,808,504.9902,808L504.9902,808z M381.5361,660.209l123.4541,123.4092L628.3994,660.209   c0.4043-0.5918,0.8584-1.125,1.3906-1.6182c14.1836-13.2363,21.9952-30.9804,21.9952-49.958   c0-37.667-30.6543-68.3223-68.3418-68.3223c-37.6885,0-68.3536,30.6553-68.3536,68.3223c0,5.5733-4.5214,10.1006-10.0996,10.1006   c-5.5776,0-10.1001-4.5273-10.1001-10.1006c0-37.667-30.6547-68.3223-68.3325-68.3223c-37.6826,0-68.3428,30.6553-68.3428,68.3223   c0,19.0176,7.7676,36.7412,21.8721,49.8887C380.6338,659.0352,381.1221,659.5967,381.5361,660.209L381.5361,660.209z" fill="#313233"/><path d="M394.2402,636.458c-5.4199,0-9.9023-4.3008-10.0898-9.7451c-0.8731-25.3584,22.5522-55.6885,54.0654-56.793   c5.8838-0.1679,10.253,4.1719,10.4502,9.7451c0.1924,5.583-4.167,10.2579-9.7402,10.4551   c-19.2725,0.6709-35.1279,20.2988-34.5855,35.8828c0.1924,5.5821-4.1723,10.2578-9.7446,10.4551   C394.4771,636.458,394.3584,636.458,394.2402,636.458L394.2402,636.458z" fill="#FFFFFF"/></g></svg>