<?xml version="1.0" ?><!DOCTYPE svg  PUBLIC '-//W3C//DTD SVG 1.1//EN'  'http://www.w3.org/Graphics/SVG/1.1/DTD/svg11.dtd'><svg enable-background="new 0 0 1010 1010" id="love-smiley" version="1.1" viewBox="0 0 1010 1010" xml:space="preserve" xmlns="http://www.w3.org/2000/svg" xmlns:xlink="http://www.w3.org/1999/xlink"><g id="love-smiley-label"><path d="M505,0C226.106,0,0,226.1157,0,504.9805C0,783.8945,226.106,1010,505,1010   c278.875,0,505-226.1055,505-505.0195C1010,226.1157,783.875,0,505,0z" fill="#F6BBBB"/></g><g id="love-smiley-love-smiley"><g id="love-smiley-color"><path d="M777.7002,505c0,150.6123-122.0879,272.7002-272.7002,272.7002S232.2998,655.6123,232.2998,505    c0-150.6025,122.0879-272.7002,272.7002-272.7002S777.7002,354.3975,777.7002,505z" fill="#FED78F"/><path d="M395.2021,397.2437c5.691-13.0196,18.6807-22.1138,33.7715-22.1138    c20.3584,0,34.9952,16.8271,36.8496,36.8496c0,0,0.9864,4.9707-1.2031,13.9365c-2.979,12.1914-9.9819,23.0112-19.4111,31.2764    l-50.0069,43.083l-49.1489-43.083c-9.4389-8.2652-16.4419-19.085-19.4404-31.2862c-2.1699-8.956-1.1836-13.9267-1.1836-13.9267    c1.8442-20.0225,16.4917-36.8496,36.8491-36.8496C377.3789,375.1299,389.5205,384.2241,395.2021,397.2437z" fill="#F05354"/><path d="M613.96,397.2437c5.6709-13.0196,18.6611-22.1138,33.7617-22.1138    c20.3486,0,34.9951,16.8271,36.8496,36.8496c0,0,0.9863,4.9707-1.1943,13.9365c-2.9786,12.1914-9.9913,23.0112-19.42,31.2764    l-49.9969,43.083l-49.1592-43.083c-9.4492-8.2652-16.4317-19.085-19.4199-31.2862c-2.1906-8.956-1.1934-13.9267-1.1934-13.9267    c1.834-20.0225,16.4902-36.8496,36.8291-36.8496C596.1172,375.1299,608.2686,384.2241,613.96,397.2437z" fill="#F05354"/></g><g><path d="M505,222.2002c-155.9385,0-282.7998,126.8613-282.7998,282.7998S349.0615,787.7998,505,787.7998    S787.7998,660.9385,787.7998,505S660.9385,222.2002,505,222.2002z M505,767.5996c-144.7979,0-262.5996-117.8066-262.5996-262.5996    c0-144.7979,117.8017-262.6001,262.5996-262.6001c144.793,0,262.5996,117.8022,262.5996,262.6001    C767.5996,649.793,649.793,767.5996,505,767.5996z" fill="#313233"/><path d="M647.8301,576.5088c-5.5723,0-10.0996,4.5176-10.0996,10.0996c0,27.667-56.0528,80.8203-132.7305,80.8203    c-76.687,0-132.7402-53.1533-132.7402-80.8203c0-5.582-4.522-10.0996-10.0996-10.0996c-5.5782,0-10.1001,4.5176-10.1001,10.0996    c0,44.5234,72.0068,101.0205,152.9399,101.0205c80.9277,0,152.9297-56.4971,152.9297-101.0205    C657.9297,581.0264,653.4033,576.5088,647.8301,576.5088z" fill="#313233"/><path d="M395.2021,510.375c2.3477,0,4.6949-0.8135,6.5938-2.4453l50.0708-43.1426    c11.3677-9.9619,19.1694-22.5771,22.5669-36.4741c2.2685-9.2964,1.7363-15.4458,1.4106-17.6206    c-2.6088-26.4785-22.271-45.6621-46.8706-45.6621c-12.916,0-24.9785,5.2964-33.6679,14.2324    c-8.4971-9.0147-20.2149-14.2324-33.0274-14.2324c-24.6089,0-44.2715,19.1836-46.8701,45.6621    c-0.3257,2.1797-0.8584,8.3193,1.3955,17.6255c3.418,13.9121,11.2344,26.5219,22.5918,36.4692l49.1489,43.083    C390.4482,509.542,392.8252,510.375,395.2021,510.375z M336.4268,423.5293c-1.4795-6.1152-1.0752-9.5918-1.0899-9.5918    c0.0694-0.3408,0.1182-0.6855,0.148-1.0313c1.2671-13.7539,10.8794-27.6762,26.7934-27.6762    c10.4356,0,19.2827,6.0019,23.667,16.0522c1.6074,3.6797,5.2373,6.0615,9.252,6.0615h0.0048c4.0142,0,7.649-2.3769,9.2569-6.0561    c4.2607-9.7549,13.8872-16.0576,24.5146-16.0576c15.9048,0,25.5166,13.9272,26.8975,28.4555    c0.0049,0.0347,0.4785,3.5313-1.0606,9.834c-2.4062,9.8487-8.0283,18.8633-16.1953,26.0191l-43.354,37.3569l-42.5551-37.3027    C344.4751,442.3877,338.8481,433.3628,336.4268,423.5293z" fill="#313233"/><path d="M694.5918,410.6924c-2.6035-26.4834-22.2715-45.6621-46.8701-45.6621    c-12.9209,0-24.9932,5.2964-33.6729,14.2275c-8.5019-9.0146-20.2197-14.2275-33.0322-14.2275    c-24.2148,0-44.2959,19.603-46.8506,45.6572c-0.3262,2.1943-0.8584,8.3389,1.4102,17.6201    c3.4131,13.9321,11.2148,26.5523,22.5674,36.4795l49.1582,43.083c1.9033,1.6719,4.2812,2.5049,6.6582,2.5049    c2.3466,0,4.704-0.8135,6.5986-2.4512l50.0557-43.1367c11.3719-9.9717,19.1844-22.582,22.5771-36.4844    C695.4502,419.0068,694.918,412.8672,694.5918,410.6924z M673.5635,423.5195c-2.4063,9.8384-8.0283,18.8584-16.1953,26.0244    l-43.3594,37.3516l-42.5596-37.3027c-8.2168-7.1905-13.838-16.21-16.2646-26.083c-1.4795-6.0909-1.085-9.5577-1.085-9.5577    l-0.0098,0.0049c0.0684-0.3506,0.128-0.7002,0.1475-1.0556c1.2627-13.7491,10.8701-27.6714,26.7793-27.6714    c10.4346,0,19.292,6.0019,23.6816,16.0576c1.6172,3.6792,5.2471,6.0561,9.2618,6.0561h0.0096    c4.0147-0.0048,7.6436-2.3818,9.252-6.0664c4.2412-9.7495,13.8672-16.0473,24.5-16.0473    c15.8994,0,25.5166,13.9272,26.8974,28.4555C674.6289,413.7202,675.1025,417.2217,673.5635,423.5195z" fill="#313233"/></g></g></svg>