<?xml version="1.0" ?><!DOCTYPE svg  PUBLIC '-//W3C//DTD SVG 1.1//EN'  'http://www.w3.org/Graphics/SVG/1.1/DTD/svg11.dtd'><svg enable-background="new 0 0 1010 1010" id="love-envelope" version="1.1" viewBox="0 0 1010 1010" xml:space="preserve" xmlns="http://www.w3.org/2000/svg" xmlns:xlink="http://www.w3.org/1999/xlink"><g id="love-envelope-label"><path d="M504.9902,0C226.0962,0,0,226.1157,0,504.9805C0,783.8945,226.0962,1010,504.9902,1010   C783.875,1010,1010,783.8945,1010,504.9805C1010,226.1157,783.875,0,504.9902,0z" fill="#F6BBBB"/></g><g id="love-envelope-love-envelope"><g><polygon fill="#FFFFFF" points="212.1001,287.8496 212.1001,288.8955 212.1001,722.1504 797.9004,722.1504 797.9004,288.8955     797.9004,287.8496   "/><path d="M808,732.25H202v-454.5h606V732.25L808,732.25z M222.2002,712.0498h565.5996V297.9502H222.2002V712.0498    L222.2002,712.0498z" fill="#313233"/></g><g><rect fill="#313233" height="20.1992" width="103.5254" x="492.375" y="595.9004"/><rect fill="#313233" height="20.1992" width="60.6001" x="414.1001" y="595.9004"/><rect fill="#313233" height="20.2002" width="181.8003" x="414.1001" y="560.5498"/></g><g><rect fill="#FED78F" height="80.7998" width="80.8008" x="668.1582" y="373.3252"/><path d="M759.0586,464.2251h-101v-101h101V464.2251L759.0586,464.2251z M678.2588,444.0254h60.5996v-60.6006    h-60.5996V444.0254L678.2588,444.0254z" fill="#313233"/></g><g><path d="M511.5693,470.5967c0-16.7481-13.5625-30.2998-30.3003-30.2998c-16.728,0-30.3002,13.5517-30.3002,30.2998    c0,8.7685,3.788,16.5898,9.7255,22.1533h-0.0791l50.9541,39.4434l50.9532-39.4434c-0.0197,0-0.0391,0-0.0587-0.0498    c5.9375-5.5332,9.705-13.335,9.705-22.1035c0-16.7481-13.5712-30.2998-30.3193-30.2998    C525.1211,440.2969,511.5693,453.8486,511.5693,470.5967z" fill="#F05354"/><path d="M511.5693,542.293c-2.1806,0-4.3642-0.7002-6.1845-2.1115l-50.9536-39.4423    c-0.5772-0.4541-1.1001-0.9571-1.5586-1.4996c-7.7525-7.7031-12.0035-17.8325-12.0035-28.643    c0-22.2813,18.1241-40.3999,40.3999-40.3999c12.0533,0,22.8877,5.3061,30.3003,13.7002    c7.3975-8.3941,18.2276-13.7002,30.2803-13.7002c22.291,0,40.4199,18.1186,40.4199,40.3999    c0,10.7807-4.2119,20.8413-11.8857,28.4951c-0.4834,0.6016-1.0459,1.1543-1.6768,1.6475l-50.9531,39.4423    C515.9287,541.5928,513.749,542.293,511.5693,542.293L511.5693,542.293z M467.6279,485.4014l43.9414,34.0185l43.7823-33.8901    c0.0693-0.0786,0.1484-0.148,0.2275-0.2173c4.1816-3.9053,6.4902-9.123,6.4902-14.7158c0-11.1358-9.0742-20.2002-20.2197-20.2002    c-11.126,0-20.1807,9.0644-20.1807,20.2002c0,5.583-4.5175,10.1001-10.0996,10.1001c-5.5781,0-10.1005-4.5171-10.1005-10.1001    c0-11.1358-9.0591-20.2002-20.1998-20.2002c-11.1406,0-20.1997,9.0644-20.1997,20.2002c0,5.583,2.3174,10.8398,6.5293,14.7851    C467.6084,485.3916,467.6182,485.3916,467.6279,485.4014L467.6279,485.4014z" fill="#313233"/></g></g></svg>