<?xml version="1.0" ?><!DOCTYPE svg  PUBLIC '-//W3C//DTD SVG 1.1//EN'  'http://www.w3.org/Graphics/SVG/1.1/DTD/svg11.dtd'><svg enable-background="new 0 0 1010 1010" id="smartphone-heart" version="1.1" viewBox="0 0 1010 1010" xml:space="preserve" xmlns="http://www.w3.org/2000/svg" xmlns:xlink="http://www.w3.org/1999/xlink"><g id="smartphone-heart-label"><path d="M505,0C226.106,0,0,226.1157,0,504.9805C0,783.8945,226.106,1010,505,1010   c278.875,0,505-226.1055,505-505.0195C1010,226.1157,783.875,0,505,0z" fill="#F6BBBB"/></g><g id="smartphone-heart-smartphone-heart"><g id="smartphone-heart-color"><rect fill="#FED78F" height="363.5996" width="303" x="353.5" y="323.2002"/><path d="M353.5,249.9746c0-15.3174,12.4575-27.7744,27.7754-27.7744h247.4492    c15.3184,0,27.7754,12.457,27.7754,27.7744V303h-303V249.9746z" fill="#FFFFFF"/><path d="M656.5,760.0254c0,15.3174-12.457,27.7744-27.7754,27.7744H381.2754    c-15.3179,0-27.7754-12.457-27.7754-27.7744V707h303V760.0254z" fill="#FFFFFF"/><path d="M505,467.3716c0-29.4224-23.8394-53.272-53.2812-53.272c-29.4122,0-53.2715,23.8496-53.2715,53.272    c0,15.4062,6.6572,29.1753,17.1123,38.9204l-0.128,0.04L505,595.9004l89.5977-89.5684c-0.0293-0.04-0.0587-0.04-0.0977-0.08    c10.4453-9.7247,17.0527-23.4742,17.0527-38.8804c0-29.4224-23.8388-53.272-53.2812-53.272    C528.8594,414.0996,505,437.9492,505,467.3716z" fill="#F05354"/></g><g><path d="M628.7246,202H381.2754c-26.4536,0-47.9756,21.5215-47.9756,47.9746v510.0508    c0,26.4531,21.522,47.9746,47.9756,47.9746h247.4492c26.4541,0,47.9756-21.5215,47.9756-47.9746V249.9746    C676.7002,223.5215,655.1787,202,628.7246,202z M353.5,323.2002h303v363.5996h-303V323.2002z M353.5,249.9746    c0-15.3174,12.4575-27.7744,27.7754-27.7744h247.4492c15.3184,0,27.7754,12.457,27.7754,27.7744V303h-303V249.9746z     M656.5,760.0254c0,15.3174-12.457,27.7744-27.7754,27.7744H381.2754c-15.3179,0-27.7754-12.457-27.7754-27.7744V707h303V760.0254    z" fill="#313233"/><path d="M494.9004,747.4004h40.3994c5.583,0,10.1006-4.5176,10.1006-10.1006s-4.5176-10.0996-10.1006-10.0996    h-40.3994c-5.5781,0-10.1006,4.5166-10.1006,10.0996S489.3223,747.4004,494.9004,747.4004z" fill="#313233"/><path d="M558.2715,404c-22.3203,0-41.9785,11.5942-53.2715,29.082C493.7065,415.5942,474.0391,404,451.7188,404    c-34.9459,0-63.3716,28.4258-63.3716,63.3716c0,17.0732,6.7563,33.0268,19.0708,45.1098    c0.2661,0.3448,0.5571,0.6807,0.8725,0.9913l89.5689,89.5683C499.832,605.0137,502.416,606,505,606s5.168-0.9863,7.1406-2.959    l89.5988-89.5683c0.3349-0.3262,0.6308-0.6709,0.9072-1.0313c12.2695-12.043,19.0068-27.9766,19.0068-45.0698    C621.6533,432.4258,593.2168,404,558.2715,404z M587.6152,498.8604c-0.4736,0.4482-0.9082,0.9365-1.2929,1.4594L505,581.6182    l-81.2881-81.2935c-0.375-0.5083-0.7939-0.9814-1.2676-1.4204c-8.9609-8.354-13.8974-19.5537-13.8974-31.5327    c0-23.8052,19.3667-43.1714,43.1719-43.1714c23.8095,0,43.1816,19.3662,43.1816,43.1714c0,5.5776,4.522,10.1001,10.0996,10.1001    c5.5781,0,10.0996-4.5225,10.0996-10.1001c0-23.8052,19.3721-43.1714,43.1719-43.1714c23.8105,0,43.1816,19.3662,43.1816,43.1714    C601.4531,479.3701,596.541,490.5552,587.6152,498.8604z" fill="#313233"/></g></g></svg>