<?xml version="1.0" ?><!DOCTYPE svg  PUBLIC '-//W3C//DTD SVG 1.1//EN'  'http://www.w3.org/Graphics/SVG/1.1/DTD/svg11.dtd'><svg enable-background="new 0 0 1010 1010" id="watch-heart" version="1.1" viewBox="0 0 1010 1010" xml:space="preserve" xmlns="http://www.w3.org/2000/svg" xmlns:xlink="http://www.w3.org/1999/xlink"><g id="watch-heart-label"><path d="M505,0C226.106,0,0,226.1157,0,504.9805C0,783.8945,226.106,1010,505,1010   c278.875,0,505-226.1055,505-505.0195C1010,226.1157,783.875,0,505,0z" fill="#F6BBBB"/></g><g id="watch-heart-watch-heart"><g><polygon fill="#FFFFFF" points="384.3032,237.3496 625.707,237.3496 640.4531,296.2832 369.5674,296.2832   "/><polygon fill="#FFFFFF" points="625.707,772.6504 384.3032,772.6504 369.168,712.1387 640.8477,712.1387   "/><path d="M692.7285,652.5742c0,21.709-17.6465,39.3643-39.3457,39.3643H356.627    c-21.6993,0-39.3545-17.6553-39.3545-39.3643V355.8374c0-21.6992,17.6552-39.3545,39.3545-39.3545h296.7558    c21.6992,0,39.3457,17.6553,39.3457,39.3545V652.5742z" fill="#FED78F"/><path d="M378.3901,599.1641c0,17.4091,14.2329,31.6523,31.646,31.6523h189.918    c17.4082,0,31.6611-14.2432,31.6611-31.6523V409.2568c0-17.4184-14.2529-31.6611-31.6611-31.6611h-189.918    c-17.4131,0-31.646,14.2427-31.646,31.6611V599.1641z" fill="#FFFFFF"/><path d="M505,473.6445c0-24.52-19.8643-44.3945-44.3994-44.3945c-24.5152,0-44.3897,19.8745-44.3897,44.3945    c0,12.8418,5.543,24.313,14.2525,32.4307l-0.104,0.0391L505,580.75l74.665-74.6357c-0.0195-0.0391-0.0498-0.0391-0.0791-0.0596    c8.6993-8.1172,14.2032-19.5684,14.2032-32.4102c0-24.52-19.8643-44.3945-44.3946-44.3945    C524.8848,429.25,505,449.1245,505,473.6445z" fill="#FFFFFF"/></g><g><g><path d="M661.4219,296.8945l-18.0401-72.1006c-1.124-4.4877-5.1582-7.644-9.7939-7.644H376.4175     c-4.6358,0-8.6748,3.1563-9.7993,7.6538l-18.0303,72.0908c-29.042,3.9453-51.5156,28.8404-51.5156,58.9429v296.7368     c0,29.9649,22.2617,54.7715,51.1064,58.8936l18.4395,73.7285c1.1245,4.4971,5.1635,7.6533,9.7993,7.6533h257.1704     c4.6357,0,8.6699-3.1562,9.7939-7.6435l18.4541-73.7383c28.8301-4.1328,51.0918-28.9286,51.0918-58.8936V355.8374     C712.9277,325.7349,690.459,300.8398,661.4219,296.8945z M384.3032,237.3496H625.707l14.7354,58.9336H369.5625L384.3032,237.3496     z M625.707,772.6504H384.3032l-15.1352-60.5117h271.6689L625.707,772.6504z M692.7285,652.5742     c0,21.709-17.6465,39.3643-39.3457,39.3643H356.627c-21.6993,0-39.3545-17.6553-39.3545-39.3643V355.8374     c0-21.6992,17.6552-39.3545,39.3545-39.3545h296.7558c21.6992,0,39.3457,17.6553,39.3457,39.3545V652.5742z" fill="#313233"/><path d="M599.9541,367.4961h-189.918c-23.0205,0-41.7461,18.7305-41.7461,41.7607v189.9073     c0,23.0214,18.7256,41.7519,41.7461,41.7519h189.918c23.0303,0,41.7607-18.7305,41.7607-41.7519V409.2568     C641.7148,386.2266,622.9844,367.4961,599.9541,367.4961z M621.5156,599.1641c0,11.8857-9.6767,21.5517-21.5615,21.5517h-189.918     c-11.8798,0-21.5459-9.666-21.5459-21.5517V409.2568c0-11.8847,9.6661-21.561,21.5459-21.561h189.918     c11.8848,0,21.5615,9.6763,21.5615,21.561V599.1641z" fill="#313233"/><path d="M454.998,655.5137h-44.4389c-5.5777,0-10.1001,4.5175-10.1001,10.0996     c0,5.583,4.5224,10.1006,10.1001,10.1006h44.4389c5.5782,0,10.1001-4.5176,10.1001-10.1006     C465.0981,660.0312,460.5762,655.5137,454.998,655.5137z" fill="#313233"/><path d="M599.4316,655.5137h-44.4345c-5.5733,0-10.1006,4.5175-10.1006,10.0996     c0,5.583,4.5273,10.1006,10.1006,10.1006h44.4345c5.5821,0,10.0997-4.5176,10.0997-10.1006     C609.5313,660.0312,605.0137,655.5137,599.4316,655.5137z" fill="#313233"/></g><g><path d="M505,473.6445c0-24.52-19.8643-44.3945-44.3994-44.3945c-24.5152,0-44.3897,19.8745-44.3897,44.3945     c0,12.8418,5.543,24.313,14.2525,32.4307l-0.104,0.0391L505,580.75l74.665-74.6357c-0.0195-0.0391-0.0498-0.0391-0.0791-0.0596     c8.6993-8.1172,14.2032-19.5684,14.2032-32.4102c0-24.52-19.8643-44.3945-44.3946-44.3945     C524.8848,429.25,505,449.1245,505,473.6445z" fill="#F05354"/><path d="M505,590.8496c-2.584,0-5.168-0.9863-7.1406-2.959l-74.6406-74.6347     c-0.2911-0.2862-0.5577-0.5918-0.8086-0.9082c-10.5245-10.376-16.2994-24.0562-16.2994-38.7032     c0-30.0434,24.4458-54.4946,54.4898-54.4946c18.2915,0,34.5068,9.0542,44.3994,22.9224     c9.8877-13.8682,26.0986-22.9224,44.3945-22.9224c30.0537,0,54.4951,24.4512,54.4951,54.4946     c0,14.667-5.7705,28.357-16.2841,38.7129c-0.2471,0.3164-0.5137,0.6123-0.7989,0.8985l-74.666,74.6347     C510.168,589.8633,507.584,590.8496,505,590.8496L505,590.8496z M438.541,500.0088L505,566.4678l66.5176-66.4981     c0.3554-0.4638,0.75-0.8974,1.1836-1.3017c7.082-6.6084,10.9883-15.4956,10.9883-25.0235     c0-18.9082-15.3868-34.2949-34.295-34.2949s-34.2949,15.3867-34.2949,34.2949c0,5.5826-4.5215,10.1001-10.0996,10.1001     c-5.5776,0-10.0996-4.5175-10.0996-10.1001c0-18.9082-15.3867-34.2949-34.2998-34.2949     c-18.9082,0-34.2901,15.3867-34.2901,34.2949c0,9.5181,3.9209,18.4048,11.0372,25.043     C437.792,499.1016,438.1865,499.5454,438.541,500.0088L438.541,500.0088z" fill="#313233"/></g><g><path d="M639.6641,732.2305H370.332c-5.5781,0-10.1006,4.5175-10.1006,10.0995     c0,5.583,4.5225,10.0996,10.1006,10.0996h269.3321c5.5722,0,10.0996-4.5166,10.0996-10.0996     C649.7637,736.748,645.2363,732.2305,639.6641,732.2305z" fill="#313233"/><path d="M370.332,277.7305h269.3321c5.5722,0,10.0996-4.5176,10.0996-10.1006     c0-5.582-4.5274-10.0996-10.0996-10.0996H370.332c-5.5781,0-10.1006,4.5176-10.1006,10.0996     C360.2314,273.2129,364.7539,277.7305,370.332,277.7305z" fill="#313233"/></g></g></g></svg>