<svg width="580" height="400" xmlns="http://www.w3.org/2000/svg">
 <!-- Created with Method Draw - http://github.com/duopixel/Method-Draw/ -->
 <g>
  <title>background</title>
  <rect fill="#fff" id="canvas_background" height="402" width="582" y="-1" x="-1"/>
  <g display="none" overflow="visible" y="0" x="0" height="100%" width="100%" id="canvasGrid">
   <rect fill="url(#gridpattern)" stroke-width="0" y="0" x="0" height="100%" width="100%"/>
  </g>
 </g>
 <g>
  <title>Layer 1</title>
  <path id="svg_2" d="m388.305212,189.754552c0,0 32.34907,7.07788 40.03213,31.54684c0,0 6.8741,9.50455 4.85235,14.56014c-2.02175,5.05547 -5.25683,6.67329 -6.06546,7.28001c0,0 4.04371,-4.65121 -9.7047,-12.13347c0,0 -7.07645,-1.21333 -8.4917,-2.42667c-1.41524,-1.21334 -22.24,-5.25782 -26.68809,4.85334c-4.44797,10.11128 -5.45885,27.09798 -4.85235,27.90684c0.60651,0.80885 21.22913,16.17795 23.04875,20.62681c1.81962,4.44887 11.52443,13.54883 15.77027,13.3467c4.24574,-0.20213 14.35492,-0.20213 16.98328,-3.64001c2.62825,-3.43788 10.31131,-3.84225 12.13093,0c1.81962,3.84214 1.21312,3.64001 1.21312,3.64001c0,0 6.46983,-1.41547 8.49169,3.64001c2.02175,5.05558 -3.03284,7.28001 -3.63934,7.28001c-0.60651,0 3.84147,-7.6845 -2.42623,-6.06668c0,0 -3.63924,0.15171 -3.63924,-1.21333c0,-1.36505 2.12293,7.12841 0,7.28001c0,0 -7.12698,-7.88663 -8.49169,-3.64001c0,0 -4.54905,0.91003 -6.06547,1.21334c-1.51631,0.3033 -1.21311,1.21333 -1.21311,1.21333c0,0 -3.94254,1.51665 -1.21301,6.06668c0,0 0,1.66835 -1.21311,2.42678c-1.21312,0.75833 0.75821,4.39833 6.06546,1.21334c0,0 1.36472,-1.21334 1.21312,0c-0.15171,1.21334 -5.45897,7.73503 -12.13093,-1.21334c0,0 -2.42623,-6.82511 1.21311,-8.49346c3.63924,-1.66835 -1.21311,-5.00505 -6.06546,-2.42667c0,0 -0.30331,4.85335 1.213,6.06668c1.51642,1.21334 -2.57783,0.15171 -3.63923,-1.21333c-1.06141,-1.36494 -2.42623,2.88168 -2.42623,3.64c0,0.75832 -1.36472,3.3367 -2.42612,2.42678c-1.06152,-0.91002 -11.06952,-1.97176 -10.91793,-1.21344c0.15171,0.75843 -4.70064,3.94342 -6.06546,2.42678c-1.36471,-1.51675 -8.94649,-9.25178 -9.7047,-8.49346c-0.75821,0.75832 5.15565,9.25178 8.49169,10.92013c3.33593,1.66824 17.28659,2.72998 21.83563,-1.21333c0,0 6.97528,-1.36505 7.27858,0c0,0 7.88508,3.18499 7.27858,4.85334c-0.60661,1.66835 -0.60661,0.75832 -1.21311,0c-0.60651,-0.75843 -5.61056,-3.48841 -6.06547,-2.42667c-0.4549,1.06162 0,1.21333 0,1.21333c0,0 6.36877,1.81995 6.06547,2.42667c0,0 7.43018,3.03329 6.06546,9.70669c0,0 -2.27452,1.66835 -2.42623,0c-0.1516,-1.66835 0.90981,-6.21839 -3.63923,-6.06668c0,0 -0.75821,2.42667 -3.63924,1.21334c-2.88113,-1.21334 1.66791,-3.79172 -13.34404,-2.42667c0,0 0.6065,2.88168 2.42612,3.64c1.81962,0.75832 4.85246,0.75832 4.85246,3.64001c0,0 1.97121,2.42667 0,4.85334c0,0 -1.21312,0.75833 -1.21312,0c0,-0.75832 1.21312,-4.39832 -4.85235,-6.06667c-6.06557,-1.66836 -4.85246,-1.21334 -4.85246,-1.21334c0,0 1.06152,7.28001 -1.21311,7.28001c-2.27452,0 1.51642,4.55004 6.06557,2.42668c0,0 0.4548,-1.81995 1.21301,-1.21334c0.75821,0.60672 -3.79084,9.40338 -12.13093,-1.21334c0,0 -2.72943,-5.61166 0,-7.28001c0,0 1.81962,-5.61166 -7.27858,-3.64001c0,0 -3.79083,0.60661 -3.63924,0c0.1516,-0.60672 -0.6065,2.88169 0,3.64001c0.60651,0.75832 -7.12698,-1.66835 -7.27858,-2.42667l-2.42612,0c0,0 1.41525,7.07788 2.42612,7.28001c1.01088,0.20213 -4.65011,-3.43787 -6.06546,-6.06668c0,0 0,5.05548 1.21311,6.06668c1.21312,1.01121 -5.45896,-5.46006 -4.85235,-6.06668c0,0 0.20213,6.47116 2.42612,9.70669c2.22399,3.23552 -4.85235,-3.03328 -6.06546,-4.85334c0,0 -1.21301,0.80885 0,2.42667c1.21311,1.61782 -4.04361,-1.61782 -4.85235,-6.06668c0,0 -3.4371,-2.83115 -4.85235,-3.64001c0,0 0.20213,6.87553 1.21311,7.28002c0,0 -2.8306,-2.22454 -3.63934,-4.85335c0,0 -1.61738,2.42668 -1.21312,3.64001c0,0 -4.6501,-5.25782 -6.06546,-9.70669c-1.41525,-4.44886 -1.21301,1.21334 -1.21301,1.21334c0,0 -2.8306,-0.40459 -4.85246,-8.49335c0,0 -11.72655,12.33549 -15.77016,13.34669c-4.04361,1.0111 4.85235,-4.85334 4.85235,-4.85334c0,0 -6.67197,2.02219 -7.27858,3.64001c0,0 0.60661,-2.22454 3.63935,-4.85335c3.03273,-2.62891 -3.63935,-1.21333 -3.63935,-1.21333c0,0 -1.41525,-0.40459 -1.213,-13.3468c0,0 -9.09831,9.70679 -14.55716,9.70679c-5.45897,0 5.05459,-4.0446 6.06546,-7.28012c1.01087,-3.23553 -2.22399,-2.22443 -3.63934,-1.21334c-1.41525,1.01121 -11.92869,7.07788 -12.13093,8.49346c-0.20213,1.41547 -1.21301,-2.42667 -1.21301,-2.42667c0,0 -2.42623,1.21334 -4.85246,1.21334c-2.42612,0 7.07634,-4.44887 8.4917,-7.28013c1.41535,-2.83115 -13.14181,5.05559 -18.1964,8.49346c0,0 -4.24585,1.41547 -4.85235,0c-0.60661,-1.41558 7.27858,-6.87553 7.27858,-7.28012c0,-0.40449 2.83049,-3.84214 -2.42623,-1.21334c-5.25672,2.62891 -12.13093,0.60672 -16.98328,2.42667c-4.85246,1.82006 -10.10907,7.48226 -16.98339,7.28013c-6.87421,-0.20224 -6.87255,8.49335 -19.4094,8.49335c-7.27858,0 -4.24584,2.83115 -7.27858,2.42667c-3.03273,-0.40448 3.63924,-3.64001 3.63924,-3.64001c0,0 -7.27858,2.42667 -8.49159,2.42667c-1.21311,0 -6.67207,0.20213 6.06536,-4.85334c0,0 -9.30033,0 -6.06536,-1.21334c3.23487,-1.21333 11.32219,-3.64 10.91782,-4.85334c-0.40448,-1.21333 -8.69383,-1.0112 -6.06547,-2.42667c2.62825,-1.41558 16.98328,-6.6734 13.34405,-7.28012c-3.63935,-0.60662 -8.89607,-0.80886 -6.06547,-2.42668c2.83061,-1.61781 37.6058,-5.45995 42.45826,-9.70668c4.85235,-4.24673 17.38765,-16.58222 20.62251,-16.9867c3.23497,-0.4046 0,-3.43788 -2.42612,-2.42678c-2.42623,1.0112 -4.65022,-0.60662 -3.63934,-7.28002c1.01098,-6.67329 -10.40488,14.63384 -16.98328,7.28002c-3.43711,-3.84214 -0.80875,-6.6733 -4.85235,-6.06668c-4.04361,0.60672 -3.84148,-4.44886 -4.85235,-2.42668c-1.01088,2.02219 -9.50257,14.56014 -13.34405,13.34681c-3.84147,-1.21334 -1.01087,-2.02219 -3.63934,-2.42667c-2.62836,-0.4046 -4.44798,-1.21334 -4.85235,-3.64012c-0.40437,-2.42667 -2.83049,1.61793 -3.63924,-2.42667c-0.80874,-4.04449 -1.41524,-9.09997 -4.85235,-4.85335c-3.43721,4.24674 -4.65033,1.41558 -4.85246,0c-0.20213,-1.41546 -7.48071,0.80886 -7.27847,-3.64c0.20202,-4.44886 -7.07645,1.41557 -6.06557,-3.64001c1.01098,-5.05547 -6.14877,-0.68517 -4.85235,-4.85334c2.8306,-9.10008 -9.7047,-0.80886 -8.49159,-4.85335c1.21301,-4.04449 -5.86333,-0.80885 -4.85246,-4.85334c1.01099,-4.04449 -6.73165,-2.63972 -6.06546,-6.06668c1.41525,-7.28012 -7.27847,-2.22454 -6.06547,-8.49346c1.21312,-6.26881 -5.52052,-0.04204 -4.85235,-4.85334c1.01099,-7.28002 -8.66513,-4.63632 -6.06546,-9.70669c4.04372,-7.88674 -4.15791,-4.49641 -2.42623,-8.49335c2.62836,-6.06668 -16.88729,0.67304 -12.13093,-9.70679c2.2241,-4.85335 -13.20867,-8.08468 -6.06546,-12.13336c12.13093,-6.87553 -18.60066,-3.43788 -3.63924,-14.56003c13.95055,-6.47116 14.80541,-7.08064 -2.42623,-6.06668c-6.87421,0.40448 -17.18552,-9.10007 -7.27847,-9.7068c9.90694,-0.60661 30.12508,-5.45995 7.27847,-7.28001c-22.8465,-1.81995 -23.65525,-10.11117 -14.55705,-9.70669c9.0982,0.40449 44.68224,0.40449 35.17968,-2.42667c-9.50257,-2.83115 -52.9909,-9.75016 -36.39279,-16.9867c7.88508,-3.43788 63.44663,14.84116 47.3106,2.42667c-2.62825,-2.02219 -28.30547,-9.30231 -37.6059,-19.41348c-9.30033,-10.11117 -7.48071,-11.52675 -2.42612,-9.70669c5.05459,1.81995 63.68705,28.51345 54.58918,19.41338c-1.61749,-1.61782 -35.17967,-17.59343 -40.03213,-31.54673c-4.85235,-13.95342 -0.20214,-10.31341 3.63934,-6.06679c3.84137,4.24673 59.01212,44.80008 49.73683,31.54684c-2.8306,-4.04449 -27.49672,-20.22223 -32.75355,-36.40019c-5.25683,-16.17784 -1.21311,-11.72887 2.42623,-7.28001c3.63923,4.44886 59.85694,65.06159 50.94984,43.6802c-2.02175,-4.85335 -19.81388,-20.0201 -21.83563,-33.97351c-2.02175,-13.95342 3.23486,-8.69549 6.06546,-3.64001c2.83061,5.05558 42.6605,67.94702 43.67137,57.027c0,0 0.20224,0.20213 1.21312,0c1.01087,-0.20224 -0.80875,-5.86455 1.21311,-4.85334c0,0 0.80875,-4.44886 2.42612,-3.64012c1.61749,0.80885 3.23498,0.20224 3.63935,-4.85334c0.40426,-5.05548 12.33306,0.80885 15.77016,26.69349c0,0 2.42623,2.62561 2.42623,8.49335c0,3.0334 14.55705,17.79567 23.04875,16.98681c8.49169,-0.80885 20.62262,16.98671 24.26186,18.20004c3.63923,1.21334 11.72655,8.49335 24.26185,1.21334c12.53531,-7.28002 24.86848,-9.70669 14.55716,-10.92003c-10.31131,-1.21333 -8.28945,-5.25782 -3.63923,-6.06667c4.65011,-0.80886 24.86836,-1.21334 18.19639,-4.85335c-6.67207,-3.64011 -12.43556,-23.0878 -3.63934,-18.20014c3.63934,2.02219 16.56379,19.99163 14.55716,7.28001c-0.60661,-3.84214 -8.4917,-8.49335 -6.06547,-21.84004c2.42612,-13.34681 5.78997,-2.72855 6.06547,-1.21334c0.40437,2.22443 10.21278,29.8423 12.13093,15.77337c0.6065,-4.44886 -4.44798,-10.31341 -2.42623,-26.6935c2.02175,-16.37998 4.85235,0 4.85235,0c0,0 5.76867,16.77431 4.85246,25.48016c-0.40448,3.84225 5.25672,2.42667 4.85235,-4.85334c-0.40448,-7.28002 -3.43711,-23.25562 -1.21312,-23.05349c2.2241,0.20224 8.88768,10.8301 7.27858,19.41348c-0.60661,3.23553 8.69383,6.47116 -1.21311,13.34669c-9.90683,6.87554 -20.62263,20.62682 -20.62263,20.62682c0,0 2.39688,8.88713 -9.7047,13.3467c-7.68295,2.83115 -1.21311,8.49335 -1.21311,8.49335z" stroke-width="1.5" stroke="#000" fill="#fff"/>
 </g>
</svg>