<?xml version="1.0" encoding="UTF-8" standalone="no"?>
<!-- Created with Inkscape (http://www.inkscape.org/) -->

<svg
   xmlns:dc="http://purl.org/dc/elements/1.1/"
   xmlns:cc="http://creativecommons.org/ns#"
   xmlns:rdf="http://www.w3.org/1999/02/22-rdf-syntax-ns#"
   xmlns:svg="http://www.w3.org/2000/svg"
   xmlns="http://www.w3.org/2000/svg"
   xmlns:sodipodi="http://sodipodi.sourceforge.net/DTD/sodipodi-0.dtd"
   xmlns:inkscape="http://www.inkscape.org/namespaces/inkscape"
   version="1.1"
   id="svg869"
   width="544"
   height="184"
   viewBox="0 0 544 184"
   sodipodi:docname="googlelogo.svg"
   inkscape:version="0.92.2 (5c3e80d, 2017-08-06)">
  <metadata
     id="metadata875">
    <rdf:RDF>
      <cc:Work
         rdf:about="">
        <dc:format>image/svg+xml</dc:format>
        <dc:type
           rdf:resource="http://purl.org/dc/dcmitype/StillImage" />
        <dc:title></dc:title>
      </cc:Work>
    </rdf:RDF>
  </metadata>
  <defs
     id="defs873" />
  <sodipodi:namedview
     pagecolor="#ffffff"
     bordercolor="#666666"
     borderopacity="1"
     objecttolerance="10"
     gridtolerance="10"
     guidetolerance="10"
     inkscape:pageopacity="0"
     inkscape:pageshadow="2"
     inkscape:window-width="1366"
     inkscape:window-height="653"
     id="namedview871"
     showgrid="false"
     inkscape:zoom="0.98161765"
     inkscape:cx="272"
     inkscape:cy="92"
     inkscape:window-x="0"
     inkscape:window-y="23"
     inkscape:window-maximized="0"
     inkscape:current-layer="g1110" />
  <g
     id="g1110"
     transform="translate(0,160)">
    <path
       style="fill:#fdf7e8"
       d="m 315,-32.37756 c 0,-0.20765 0.7875,-0.99515 1.75,-1.75 1.58606,-1.24387 1.62143,-1.2085 0.37756,0.37756 C 315.82119,-32.08425 315,-31.55452 315,-32.37756 Z M 265.5,-83 c 0.99549,-1.1 2.03498,-2 2.30998,-2 0.275,0 -0.31449,0.9 -1.30998,2 -0.99549,1.1 -2.03498,2 -2.30998,2 -0.275,0 0.31449,-0.9 1.30998,-2 z m 33.90499,-0.25 -1.90499,-2.25 2.25,1.904988 c 2.11444,1.790218 2.70524,2.595012 1.90499,2.595012 -0.18976,0 -1.20226,-1.0125 -2.25,-2.25 z"
       id="path1162"
       inkscape:connector-curvature="0" />
    <path
       style="fill:#ecf2fd"
       d="m 393,-42.37756 c 0,-0.20765 0.7875,-0.99515 1.75,-1.75 1.58606,-1.24387 1.62143,-1.2085 0.37756,0.37756 C 393.82119,-42.08425 393,-41.55452 393,-42.37756 Z M 20,-136.5 c 1.291745,-1.375 2.573628,-2.5 2.848628,-2.5 0.275,0 -0.556883,1.125 -1.848628,2.5 -1.291745,1.375 -2.573628,2.5 -2.848628,2.5 -0.275,0 0.556883,-1.125 1.848628,-2.5 z"
       id="path1160"
       inkscape:connector-curvature="0" />
    <path
       style="fill:#e3ecfc"
       d="m 398,-26.37756 c 0,-0.20765 0.7875,-0.99515 1.75,-1.75 1.58606,-1.24387 1.62143,-1.2085 0.37756,0.37756 C 398.82119,-26.08425 398,-25.55452 398,-26.37756 Z m 4.07895,-37.205773 c 0.048,-1.164943 0.28494,-1.4019 0.60416,-0.604167 0.28887,0.721875 0.25335,1.584375 -0.0789,1.916667 -0.33229,0.332291 -0.56864,-0.258334 -0.52522,-1.3125 z"
       id="path1158"
       inkscape:connector-curvature="0" />
    <path
       style="fill:#fbe8e7"
       d="M 154.40499,-32.25 152.5,-34.5 l 2.25,1.90499 c 2.11444,1.79022 2.70524,2.59501 1.90499,2.59501 -0.18976,0 -1.20226,-1.0125 -2.25,-2.25 z M 218.5,-32 c 0.99549,-1.1 2.03498,-2 2.30998,-2 0.275,0 -0.31449,0.9 -1.30998,2 -0.99549,1.1 -2.03498,2 -2.30998,2 -0.275,0 0.31449,-0.9 1.30998,-2 z"
       id="path1156"
       inkscape:connector-curvature="0" />
    <path
       style="fill:#d8e5fb"
       d="m 0.07894737,-85.583333 c 0.04798392,-1.164943 0.2849403,-1.4019 0.60416667,-0.604167 0.28887061,0.721875 0.25334429,1.584375 -0.0789474,1.916667 -0.33229167,0.332291 -0.56864035,-0.258334 -0.52521927,-1.3125 z m 20.99999963,-3 c 0.04798,-1.164943 0.284941,-1.4019 0.604167,-0.604167 0.288871,0.721875 0.253344,1.584375 -0.07895,1.916667 -0.332292,0.332291 -0.568641,-0.258334 -0.52522,-1.3125 z"
       id="path1154"
       inkscape:connector-curvature="0" />
    <path
       style="fill:#c8dbfa"
       d="m 0.07894737,-88.583333 c 0.04798392,-1.164943 0.2849403,-1.4019 0.60416667,-0.604167 0.28887061,0.721875 0.25334429,1.584375 -0.0789474,1.916667 -0.33229167,0.332291 -0.56864035,-0.258334 -0.52521927,-1.3125 z M 111,-131.5 c 3.54322,-3.575 6.66722,-6.5 6.94222,-6.5 0.275,0 -2.399,2.925 -5.94222,6.5 -3.54322,3.575 -6.66722,6.5 -6.94222,6.5 -0.275,0 2.399,-2.925 5.94222,-6.5 z"
       id="path1152"
       inkscape:connector-curvature="0" />
    <path
       style="fill:#fce9b0"
       d="m 264.87244,-44.75 c -1.24387,-1.58606 -1.2085,-1.62143 0.37756,-0.37756 0.9625,0.75485 1.75,1.54235 1.75,1.75 0,0.82304 -0.82119,0.29331 -2.12756,-1.37244 z"
       id="path1150"
       inkscape:connector-curvature="0" />
    <path
       style="fill:#a7c5f8"
       d="m 117.5,-38 c 0.99549,-1.1 2.03498,-2 2.30998,-2 0.275,0 -0.31449,0.9 -1.30998,2 -0.99549,1.1 -2.03498,2 -2.30998,2 -0.275,0 0.31449,-0.9 1.30998,-2 z m 236.57895,-25.583333 c 0.048,-1.164943 0.28494,-1.4019 0.60416,-0.604167 0.28887,0.721875 0.25335,1.584375 -0.0789,1.916667 -0.33229,0.332291 -0.56864,-0.258334 -0.52522,-1.3125 z"
       id="path1148"
       inkscape:connector-curvature="0" />
    <path
       style="fill:#fcdd84"
       d="m 238.19495,-63.5 c 0.0204,-1.65 0.2445,-2.203936 0.49804,-1.230968 0.25354,0.972967 0.23687,2.322967 -0.0371,3 -0.27388,0.677032 -0.48132,-0.119032 -0.46094,-1.769032 z m 88.96294,-0.5 c 0,-1.375 0.22698,-1.9375 0.50439,-1.25 0.27741,0.6875 0.27741,1.8125 0,2.5 -0.27741,0.6875 -0.50439,0.125 -0.50439,-1.25 z M 281.75,-90.662281 c 0.6875,-0.277412 1.8125,-0.277412 2.5,0 0.6875,0.277413 0.125,0.504386 -1.25,0.504386 -1.375,0 -1.9375,-0.226973 -1.25,-0.504386 z"
       id="path1146"
       inkscape:connector-curvature="0" />
    <path
       style="fill:#98bcf8"
       d="m 401.27236,-25 c 0,-2.475 0.19502,-3.4875 0.43337,-2.25 0.23836,1.2375 0.23836,3.2625 0,4.5 -0.23835,1.2375 -0.43337,0.225 -0.43337,-2.25 z M 19.872445,-40.75 C 18.628574,-42.33606 18.663944,-42.37143 20.25,-41.12756 21.915748,-39.82119 22.445479,-39 21.622445,-39 c -0.207656,0 -0.995156,-0.7875 -1.75,-1.75 z M 401.27236,-102 c 0,-2.475 0.19502,-3.4875 0.43337,-2.25 0.23836,1.2375 0.23836,3.2625 0,4.5 -0.23835,1.2375 -0.43337,0.225 -0.43337,-2.25 z"
       id="path1144"
       inkscape:connector-curvature="0" />
    <path
       style="fill:#8ab3f6"
       d="m 67.8125,-19.68311 c 0.721875,-0.28887 1.584375,-0.25335 1.916667,0.0789 0.332291,0.33229 -0.258334,0.56864 -1.3125,0.52522 -1.164943,-0.048 -1.4019,-0.28494 -0.604167,-0.60416 z m 3.9375,0.0208 c 0.6875,-0.27741 1.8125,-0.27741 2.5,0 0.6875,0.27741 0.125,0.50439 -1.25,0.50439 -1.375,0 -1.9375,-0.22698 -1.25,-0.50439 z"
       id="path1142"
       inkscape:connector-curvature="0" />
    <path
       style="fill:#f4a29c"
       d="m 142.19495,-63.5 c 0.0204,-1.65 0.2445,-2.203936 0.49804,-1.230968 0.25354,0.972967 0.23687,2.322967 -0.0371,3 -0.27388,0.677032 -0.48132,-0.119032 -0.46094,-1.769032 z m 88.96294,-0.5 c 0,-1.375 0.22698,-1.9375 0.50439,-1.25 0.27741,0.6875 0.27741,1.8125 0,2.5 -0.27741,0.6875 -0.50439,0.125 -0.50439,-1.25 z"
       id="path1140"
       inkscape:connector-curvature="0" />
    <path
       style="fill:#face4e"
       d="m 281.25,-19.68933 c 0.9625,-0.25152 2.5375,-0.25152 3.5,0 0.9625,0.25153 0.175,0.45733 -1.75,0.45733 -1.925,0 -2.7125,-0.2058 -1.75,-0.45733 z"
       id="path1138"
       inkscape:connector-curvature="0" />
    <path
       style="fill:#75a5f5"
       d="m 347,-94.377555 c 0,-0.207656 0.7875,-0.995156 1.75,-1.75 1.58606,-1.243871 1.62143,-1.208501 0.37756,0.377555 C 347.82119,-94.084252 347,-93.554521 347,-94.377555 Z"
       id="path1136"
       inkscape:connector-curvature="0" />
    <path
       style="fill:#659bf4"
       d="m 378.8125,-36.68311 c 0.72187,-0.28887 1.58438,-0.25335 1.91667,0.0789 0.33229,0.3323 -0.25834,0.56864 -1.3125,0.52522 -1.16495,-0.048 -1.4019,-0.28494 -0.60417,-0.60416 z M 394,-42.37756 c 0,-0.20765 0.7875,-0.99515 1.75,-1.75 1.58606,-1.24387 1.62143,-1.2085 0.37756,0.37756 C 394.82119,-42.08425 394,-41.55452 394,-42.37756 Z"
       id="path1134"
       inkscape:connector-curvature="0" />
    <path
       style="fill:#f0837a"
       d="m 500.75,-19.66228 c 0.6875,-0.27741 1.8125,-0.27741 2.5,0 0.6875,0.27741 0.125,0.50439 -1.25,0.50439 -1.375,0 -1.9375,-0.22698 -1.25,-0.50439 z M 470.5,-96 c 0.99549,-1.1 2.03498,-2 2.30998,-2 0.275,0 -0.31449,0.9 -1.30998,2 -0.99549,1.1 -2.03498,2 -2.30998,2 -0.275,0 0.31449,-0.9 1.30998,-2 z"
       id="path1132"
       inkscape:connector-curvature="0" />
    <path
       style="fill:#fac52c"
       d="m 281.75,-36.66228 c 0.6875,-0.27741 1.8125,-0.27741 2.5,0 0.6875,0.27741 0.125,0.50439 -1.25,0.50439 -1.375,0 -1.9375,-0.22698 -1.25,-0.50439 z M 264,-82.377555 c 0,-0.207656 0.7875,-0.995156 1.75,-1.75 1.58606,-1.243871 1.62143,-1.208501 0.37756,0.377555 C 264.82119,-82.084252 264,-81.554521 264,-82.377555 Z M 299.87244,-83.75 c -1.24387,-1.586056 -1.2085,-1.621426 0.37756,-0.377555 0.9625,0.754844 1.75,1.542344 1.75,1.75 0,0.823034 -0.82119,0.293303 -2.12756,-1.372445 z"
       id="path1130"
       inkscape:connector-curvature="0" />
    <path
       style="fill:#f8c01b"
       d="m 250.87244,-32.75 c -1.24387,-1.58606 -1.2085,-1.62143 0.37756,-0.37756 1.66575,1.30637 2.19548,2.12756 1.37244,2.12756 -0.20765,0 -0.99515,-0.7875 -1.75,-1.75 z M 313,-31.37756 c 0,-0.20765 0.7875,-0.99515 1.75,-1.75 1.58606,-1.24387 1.62143,-1.2085 0.37756,0.37756 C 313.82119,-31.08425 313,-30.55452 313,-31.37756 Z"
       id="path1128"
       inkscape:connector-curvature="0" />
    <path
       style="fill:#518df3"
       d="m 104.5,-51 c 0.99549,-1.1 2.03498,-2 2.30998,-2 0.275,0 -0.31449,0.9 -1.30998,2 -0.99549,1.1 -2.03498,2 -2.30998,2 -0.275,0 0.31449,-0.9 1.30998,-2 z m 29.65789,-32 c 0,-1.375 0.22698,-1.9375 0.50439,-1.25 0.27741,0.6875 0.27741,1.8125 0,2.5 -0.27741,0.6875 -0.50439,0.125 -0.50439,-1.25 z"
       id="path1126"
       inkscape:connector-curvature="0" />
    <path
       style="fill:#ee756a"
       d="m 532,-31.37756 c 0,-0.20765 0.7875,-0.99515 1.75,-1.75 1.58606,-1.24387 1.62143,-1.2085 0.37756,0.37756 C 532.82119,-31.08425 532,-30.55452 532,-31.37756 Z"
       id="path1124"
       inkscape:connector-curvature="0" />
    <path
       style="fill:#eb6458"
       d="m 185.75,-36.66228 c 0.6875,-0.27741 1.8125,-0.27741 2.5,0 0.6875,0.27741 0.125,0.50439 -1.25,0.50439 -1.375,0 -1.9375,-0.22698 -1.25,-0.50439 z m 315,0 c 0.6875,-0.27741 1.8125,-0.27741 2.5,0 0.6875,0.27741 0.125,0.50439 -1.25,0.50439 -1.375,0 -1.9375,-0.22698 -1.25,-0.50439 z M 458.19495,-63.5 c 0.0204,-1.65 0.2445,-2.203936 0.49804,-1.230968 0.25354,0.972967 0.23687,2.322967 -0.0371,3 C 458.38201,-61.053936 458.17457,-61.85 458.19495,-63.5 Z M 168,-82.377555 c 0,-0.207656 0.7875,-0.995156 1.75,-1.75 1.58606,-1.243871 1.62143,-1.208501 0.37756,0.377555 C 168.82119,-82.084252 168,-81.554521 168,-82.377555 Z M 203.87244,-83.75 c -1.24387,-1.586056 -1.2085,-1.621426 0.37756,-0.377555 1.66575,1.306369 2.19548,2.127555 1.37244,2.127555 -0.20765,0 -0.99515,-0.7875 -1.75,-1.75 z"
       id="path1118"
       inkscape:connector-curvature="0" />
    <path
       style="fill:#e95549"
       d="m 154.87244,-32.75 c -1.24387,-1.58606 -1.2085,-1.62143 0.37756,-0.37756 1.66575,1.30637 2.19548,2.12756 1.37244,2.12756 -0.20765,0 -0.99515,-0.7875 -1.75,-1.75 z M 217,-31.37756 c 0,-0.20765 0.7875,-0.99515 1.75,-1.75 1.58606,-1.24387 1.62143,-1.2085 0.37756,0.37756 C 217.82119,-31.08425 217,-30.55452 217,-31.37756 Z"
       id="path1116"
       inkscape:connector-curvature="0" />
    <g
       id="g1168">
      <path
         inkscape:connector-curvature="0"
         id="path1122"
         d="m 271.74592,-21.02375 c -9.80509,-2.47262 -21.40502,-11.12566 -26.44612,-19.72765 -19.00268,-32.425623 7.13639,-71.42613 44.34027,-66.15741 25.87097,3.66378 42.47261,28.859706 35.82702,54.37385 -3.31966,12.74503 -11.97617,23.07053 -24.0965,28.74231 -5.73605,2.68422 -7.96311,3.15172 -16.25853,3.41293 -5.28663,0.16647 -11.30139,-0.12334 -13.36614,-0.64403 z m 22.21737,-17.95752 c 4.97538,-2.53825 10.37828,-8.7278 12.5248,-14.34837 2.64657,-6.929954 1.77093,-18.846288 -1.8373,-25.003272 -10.76338,-18.366312 -38.09352,-15.900122 -45.22404,4.080881 -1.67426,4.691599 -1.80389,15.261222 -0.25073,20.445191 2.1683,7.23714 10.44059,14.87527 18.32398,16.91926 4.26433,1.10564 12.16041,0.10147 16.46329,-2.09369 z"
         style="fill:#f9bb04" />
      <path
         inkscape:connector-curvature="0"
         id="path1120"
         d="M 367.74592,18.91433 C 357.87301,16.58746 346.99975,8.4306 341.92404,-0.45663 l -2.85418,-4.9975 8.17802,-3.38408 c 5.49083,-2.27211 8.30586,-3.00057 8.56707,-2.21695 1.0663,3.1989 7.18104,9.6646 11.09233,11.72899 C 370.14734,2.38394 372.95485,3 377.50806,3 393.0742,3 400.70614,-4.74219 401.75786,-21.60013 402.04609,-26.22006 401.95252,-30 401.54992,-30 c -0.40259,0 -2.55434,1.55987 -4.78166,3.46637 -12.43962,10.64785 -34.3728,8.06047 -48.10672,-5.67498 -17.39348,-17.39542 -17.36675,-45.278368 0.0601,-62.657036 14.41466,-14.374824 34.15125,-16.598464 48.96167,-5.516304 1.7508,1.31007 3.4383,2.38195 3.75,2.38195 0.31167,0 0.56669,-1.8 0.56669,-4 v -4 h 9.08628 9.08627 l -0.3996,45.75 c -0.3756,43.00269 -0.52395,46.12317 -2.47027,51.9642 -4.01197,12.04013 -9.48696,18.82688 -19.0896,23.66328 -8.46519,4.26353 -21.14052,5.73497 -30.46716,3.53685 z m 18.16512,-56.48055 C 396.40644,-40.68302 403,-50.68924 403,-63.5 c 0,-8.706837 -2.45049,-15.049579 -7.9172,-20.492493 C 379.52085,-99.48673 354,-86.756686 354,-63.5 c 0,11.60206 7.63225,22.79427 17.64007,25.86803 6.31206,1.93867 7.93892,1.94616 14.27097,0.0657 z M 55.168399,-21.47607 C 41.343166,-24.60203 25.232456,-34.70751 16.456502,-45.75819 11.325266,-52.21945 4.7816472,-65.164791 3.1334385,-72.115418 -2.5192138,-95.953101 4.8846486,-120.37504 22.852501,-137.15954 c 11.759117,-10.98467 24.380665,-16.9227 40.181137,-18.90391 18.692876,-2.34389 35.403151,2.79502 51.966362,15.9812 l 2.5,1.99028 -5.9687,6.04599 c -3.28278,3.32529 -6.34667,6.04598 -6.80863,6.04598 -0.46197,0 -2.50106,-1.32827 -4.53131,-2.95171 -14.959095,-11.96169 -39.441436,-12.79669 -56.386413,-1.92313 -21.643489,13.88859 -29.063459,42.821435 -17.11418,66.733673 3.416765,6.837437 13.026921,16.670227 19.89732,20.358257 16.006779,8.59245 37.380208,7.66186 52.261421,-2.27543 9.018822,-6.02254 14.469182,-14.642054 16.561702,-26.19166 L 116.09063,-76 H 93.045313 70 v -9 -9 h 32 32 v 11.289901 c 0,13.056792 -1.51239,20.120311 -6.46839,30.210099 -6.6435,13.52533 -18.72174,23.84154 -34.069742,29.09947 -6.576614,2.25303 -10.049701,2.78226 -19.961868,3.04183 -7.883128,0.20643 -14.172199,-0.17691 -18.331601,-1.11737 z"
         style="fill:#4184f2" />
      <path
         inkscape:connector-curvature="0"
         id="path1114"
         d="m 175.74592,-21.02375 c -9.80509,-2.47262 -21.40502,-11.12566 -26.44612,-19.72765 -16.0024,-27.306041 0.17957,-61.89832 30.9502,-66.16238 31.94399,-4.42666 57.25102,23.534493 49.21709,54.37882 -3.31966,12.74503 -11.97617,23.07053 -24.0965,28.74231 -5.73605,2.68422 -7.96311,3.15172 -16.25853,3.41293 -5.28663,0.16647 -11.30139,-0.12334 -13.36614,-0.64403 z m 18.13217,-16.53269 c 10.8388,-3.21877 18.09419,-13.43979 18.11214,-25.515421 0.0132,-8.852392 -2.36414,-15.354685 -7.48668,-20.477218 -12.89179,-12.891788 -34.93916,-7.901732 -41.0768,9.297048 -1.68596,4.72437 -1.80047,15.272626 -0.22296,20.537891 1.8445,6.15639 9.19861,13.49348 15.79621,15.75967 6.75892,2.3216 8.26505,2.36189 14.87809,0.39803 z M 488.6559,-21.9112 c -10.70417,-3.53612 -20.35762,-11.5869 -25.11004,-20.94127 -6.97013,-13.71957 -5.8795,-33.75231 2.52863,-46.446278 14.06386,-21.232552 43.66307,-24.423942 61.04209,-6.581559 4.71683,4.842582 12.61523,18.88719 11.57151,20.575963 -0.29334,0.474643 -13.57497,6.243173 -29.51473,12.818956 l -28.98137,11.955968 1.37778,2.66434 c 4.23872,8.19679 15.60663,13.06529 25.53537,10.93595 6.3064,-1.35248 8.13795,-2.33199 13.35837,-7.144 l 4.17493,-3.84832 6.68078,4.48179 c 3.67443,2.46498 6.68078,4.85703 6.68078,5.31567 0,2.07332 -11.61919,11.51882 -17.62941,14.33134 -8.76382,4.10109 -22.52447,4.91743 -31.71469,1.88145 z m 8.95829,-50.952743 c 20.98441,-8.737788 21.53893,-9.268201 15.12046,-14.463104 -3.00225,-2.429919 -4.95677,-3.133733 -9.64403,-3.472779 -3.23327,-0.233874 -7.56018,0.129722 -9.61536,0.80799 -4.73009,1.561071 -11.04317,7.224555 -13.56637,12.170424 C 477.64954,-73.392714 476.22213,-65 477.72827,-65 c 0.55007,0 9.49873,-3.538774 19.88592,-7.863943 z"
         style="fill:#e84234" />
      <path
         inkscape:connector-curvature="0"
         id="path1112"
         d="m 432,-87 v -65 h 9 9 v 65 65 h -9 -9 z"
         style="fill:#33a752" />
    </g>
  </g>
</svg>
