<svg xmlns="http://www.w3.org/2000/svg" viewBox="0 0 400 20">
  <g aria-label="A red flare silhouetted the jagged edge of a wing." style="line-height:1.25;-inkscape-font-specification:'Pacifico, Normal';font-variant-ligatures:no-common-ligatures;font-variant-caps:normal;font-variant-numeric:normal;font-feature-settings:normal;text-align:start" font-weight="400" font-size="14.111" font-family="Pacifico" letter-spacing="0" word-spacing="0" fill="#1a1a1a" stroke-width=".265">
    <path d="M3.443 13.335q-.974 0-1.764-.48-.776-.48-1.227-1.383Q0 10.555 0 9.313 0 7.17.917 5.348q.917-1.834 2.71-2.935Q5.419 1.298 7.93 1.298q.65 0 1.383.1.748.098 1.355.295.395.113.395.565 0 .367-.282.691-.268.325-.635.325-.113 0-.17-.014-.733-.17-1.255-.24-.522-.085-1.101-.085-1.792 0-3.048.875-1.256.86-1.877 2.286-.62 1.425-.62 3.076 0 1.2.465 1.863.48.65 1.242.65.86 0 1.51-.706.649-.706 1.185-2.286t1.058-4.29q.085-.395.339-.536.254-.142.677-.142 1.002 0 1.002.65 0 .112-.042.282-.367 1.369-.677 3.034-.297 1.65-.297 2.511 0 .762.226 1.115.226.339.691.339.452 0 .861-.296.41-.31 1.03-1.045.17-.197.381-.197.184 0 .283.17.112.168.112.465 0 .55-.268.875-.691.832-1.354 1.27-.664.437-1.623.437-.988 0-1.595-.564-.606-.579-.762-1.623-1.044 2.187-3.076 2.187zM15.717 13.335q-.537 0-.762-.564-.212-.565-.212-1.807 0-1.834.522-3.485.127-.41.41-.593.296-.197.818-.197.282 0 .395.07.113.07.113.268 0 .226-.212 1.016-.141.565-.226.988-.084.423-.14 1.044.465-1.213 1.043-1.975.579-.762 1.13-1.087.564-.324 1.03-.324.917 0 .917.917 0 .183-.127.889-.113.564-.113.705 0 .494.353.494.395 0 1.016-.62.183-.184.38-.184.184 0 .283.17.113.155.113.423 0 .522-.283.818-.395.41-.93.706-.523.282-1.116.282-.748 0-1.143-.381-.38-.381-.38-1.03 0-.212.042-.424.028-.282.028-.38 0-.226-.155-.226-.212 0-.565.48-.338.465-.677 1.241t-.55 1.637q-.156.663-.367.903-.198.226-.635.226z" style="-inkscape-font-specification:'Pacifico, Normal';font-variant-ligatures:no-common-ligatures;font-variant-caps:normal;font-variant-numeric:normal;font-feature-settings:normal;text-align:start"/>
    <path d="M27.43 10.118q.183 0 .282.17.113.168.113.465 0 .564-.268.875-.522.635-1.482 1.17-.945.537-2.032.537-1.481 0-2.3-.804-.818-.805-.818-2.202 0-.973.409-1.806.41-.846 1.129-1.34.734-.494 1.65-.494.82 0 1.313.494.494.48.494 1.312 0 .974-.705 1.68-.692.69-2.357 1.1.353.649 1.34.649.636 0 1.44-.437.818-.452 1.411-1.172.17-.197.381-.197zm-3.556-2.046q-.522 0-.889.606-.353.607-.353 1.468v.028q.833-.197 1.313-.593.48-.395.48-.917 0-.268-.156-.423-.141-.17-.395-.17z" style="-inkscape-font-specification:'Pacifico, Normal';font-variant-ligatures:no-common-ligatures;font-variant-caps:normal;font-variant-numeric:normal;font-feature-settings:normal;text-align:start"/>
    <path d="M31.73 10.118q.155 1.157.451 2.286.057.183.057.38 0 .636-.776.636-.438 0-.678-.24-.225-.24-.423-.903l-.014-.057q-.536.663-.974.89-.423.225-.987.225-.861 0-1.426-.635-.55-.65-.55-1.68 0-1.128.48-2.088.48-.96 1.312-1.566.833-.62 1.863-.748.268-2.667 1.016-4.642Q31.843 0 33.099 0q.606 0 1.002.55.409.55.409 1.665 0 1.553-.762 3.627t-2.018 4.276zm1.213-8.735q-.409 0-.776 2.088-.352 2.089-.48 4.544 1.567-3.386 1.567-5.503 0-.536-.099-.833-.085-.296-.212-.296zM28.88 11.91q.283 0 .537-.212.268-.211.677-.818-.141-1.03-.141-2.131 0-.437.014-.677-.776.225-1.284 1.03-.508.804-.508 1.778 0 1.03.705 1.03zM42.917 9.313q.396 0 .396.593 0 1.115-1.75 1.115-.339 0-.974-.127.184.875.296 1.947.127 1.058.127 1.75 0 1.524-.493 2.328-.494.805-1.299.805-1.016 0-1.453-1.44-.423-1.44-.423-4.346 0-2.71.578-5.49.593-2.793 1.609-4.614Q40.56 0 41.789 0q.663 0 1.03.593.38.592.38 1.594 0 3.316-3.965 7.225-.14 1.383-.14 2.427 0 1.454.098 2.978.099 1.538.325 1.538.423 0 .423-1.468 0-1.1-.155-2.13-.141-1.03-.395-2.174-.014-.183.113-.465.14-.283.338-.494.198-.212.353-.212.282 0 .677.028.127.014.297.014.564 0 1.256-.098l.24-.029q.126-.014.253-.014zm-1.425-7.916q-.254 0-.635.86-.367.862-.734 2.287-.366 1.41-.635 2.991 1.13-1.284 1.736-2.667.607-1.397.621-2.61 0-.861-.353-.861z" style="-inkscape-font-specification:'Pacifico, Normal';font-variant-ligatures:no-common-ligatures;font-variant-caps:normal;font-variant-numeric:normal;font-feature-settings:normal;text-align:start"/>
    <path d="M47.872 10.118q.183 0 .282.17.113.168.113.465 0 .564-.268.875-.607.748-1.327 1.227-.705.48-1.608.48-1.242 0-1.849-1.129-.593-1.129-.593-2.92 0-1.722.438-3.924.451-2.201 1.312-3.781Q45.247 0 46.447 0q.677 0 1.058.634.395.62.395 1.792 0 1.68-.931 3.895-.932 2.215-2.526 4.388.099.579.324.833.226.24.593.24.579 0 1.016-.325.437-.338 1.115-1.143.17-.197.38-.197zm-1.736-8.72q-.324 0-.734 1.17-.409 1.172-.72 2.907-.31 1.736-.338 3.33 1.002-1.65 1.595-3.302.592-1.665.592-3.033 0-1.073-.395-1.073z" style="-inkscape-font-specification:'Pacifico, Normal';font-variant-ligatures:no-common-ligatures;font-variant-caps:normal;font-variant-numeric:normal;font-feature-settings:normal;text-align:start"/>
    <path d="M48.724 13.335q-.875 0-1.397-.635t-.522-1.665q0-1.129.522-2.13.522-1.017 1.383-1.624.875-.62 1.849-.62.31 0 .409.127.113.112.183.423.297-.057.621-.057.692 0 .692.494 0 .297-.212 1.411-.325 1.623-.325 2.258 0 .212.1.339.112.127.281.127.268 0 .65-.339.38-.353 1.03-1.129.169-.197.38-.197.184 0 .283.17.113.168.113.465 0 .564-.268.875-.579.72-1.228 1.213-.65.494-1.256.494-.466 0-.86-.31-.382-.325-.58-.875-.733 1.185-1.848 1.185zm.508-1.425q.31 0 .593-.367.282-.367.409-.974l.522-2.596q-.593.014-1.1.451-.494.424-.79 1.13-.297.705-.297 1.495 0 .438.17.65.183.21.493.21z" style="-inkscape-font-specification:'Pacifico, Normal';font-variant-ligatures:no-common-ligatures;font-variant-caps:normal;font-variant-numeric:normal;font-feature-settings:normal;text-align:start"/>
    <path d="M54.632 13.335q-.536 0-.762-.564-.211-.565-.211-1.807 0-1.834.522-3.485.127-.41.41-.593.295-.197.818-.197.282 0 .395.07.113.07.113.268 0 .226-.212 1.016-.141.565-.226.988-.085.423-.141 1.044.466-1.213 1.044-1.975.579-.762 1.13-1.087.564-.324 1.03-.324.916 0 .916.917 0 .183-.127.889-.112.564-.112.705 0 .494.352.494.395 0 1.016-.62.184-.184.381-.184.184 0 .283.17.112.155.112.423 0 .522-.282.818-.395.41-.931.706-.522.282-1.115.282-.748 0-1.143-.381-.38-.381-.38-1.03 0-.212.041-.424.029-.282.029-.38 0-.226-.156-.226-.211 0-.564.48-.339.465-.677 1.241-.339.776-.55 1.637-.156.663-.368.903-.197.226-.635.226z" style="-inkscape-font-specification:'Pacifico, Normal';font-variant-ligatures:no-common-ligatures;font-variant-caps:normal;font-variant-numeric:normal;font-feature-settings:normal;text-align:start"/>
    <path d="M65.104 10.541q.183 0 .282.17.113.169.113.465 0 .508-.24.875-.395.607-1.044.945-.635.339-1.524.339-1.355 0-2.103-.804-.747-.819-.747-2.202 0-.973.409-1.806.409-.847 1.129-1.34.733-.494 1.65-.494.82 0 1.313.494.494.48.494 1.312 0 .974-.706 1.68-.691.69-2.37 1.1.338.649 1.143.649.578 0 .945-.268.381-.268.875-.903.17-.212.381-.212zm-2.314-2.47q-.522 0-.89.607-.352.607-.352 1.468v.028q.833-.197 1.312-.593.48-.395.48-.917 0-.268-.155-.423-.141-.17-.395-.17zM72.213 13.645q-.734 0-1.129-.338-.38-.339-.38-.762 0-.367.267-.635.268-.268.79-.268.184 0 .424.042l.38.042q-.013-.367-.169-.691-.14-.325-.366-.621-.226-.31-.424-.536-.437.832-.875 1.383-.423.55-.931 1.044-.254.254-.536.254-.226 0-.367-.155-.141-.17-.141-.41 0-.282.197-.522l.184-.225q.776-.96 1.17-1.58.24-.41.565-1.087.325-.692.635-1.426.269-.62 1.115-.62.395 0 .55.07.156.07.156.226 0 .084-.057.268-.056.183-.155.367-.254.508-.254.86 0 .212.141.466.155.254.466.635.451.593.677 1.016.24.41.24.903 0 .141-.028.395.691-.268 1.623-1.425.169-.197.38-.197.184 0 .283.169.113.17.113.466 0 .536-.268.874-.706.875-1.355 1.2-.635.31-1.58.339-.565.48-1.341.48z" style="-inkscape-font-specification:'Pacifico, Normal';font-variant-ligatures:no-common-ligatures;font-variant-caps:normal;font-variant-numeric:normal;font-feature-settings:normal;text-align:start"/>
    <path d="M77.473 5.757q-.593 0-.89-.268-.296-.282-.296-.776 0-.494.381-.818.395-.339.974-.339.522 0 .847.254.324.254.324.72 0 .564-.367.903-.367.324-.973.324zm-.113 7.578q-.917 0-1.34-.65-.41-.648-.41-1.72 0-.636.155-1.623.17-1.002.424-1.863.127-.452.338-.621.212-.17.678-.17.72 0 .72.48 0 .353-.269 1.637-.339 1.553-.339 2.103 0 .423.113.65.113.225.381.225.254 0 .635-.353t1.016-1.115q.17-.197.381-.197.184 0 .283.17.112.168.112.465 0 .564-.268.875-1.397 1.707-2.61 1.707z" style="-inkscape-font-specification:'Pacifico, Normal';font-variant-ligatures:no-common-ligatures;font-variant-caps:normal;font-variant-numeric:normal;font-feature-settings:normal;text-align:start"/>
    <path d="M84.445 10.118q.183 0 .282.17.113.168.113.465 0 .564-.268.875-.607.748-1.327 1.227-.705.48-1.608.48-1.242 0-1.849-1.129-.592-1.129-.592-2.92 0-1.722.437-3.924.452-2.201 1.312-3.781Q81.82 0 83.02 0q.677 0 1.058.634.395.62.395 1.792 0 1.68-.931 3.895-.932 2.215-2.526 4.388.099.579.324.833.226.24.593.24.579 0 1.016-.325.438-.338 1.115-1.143.17-.197.38-.197zm-1.736-8.72q-.324 0-.734 1.17-.409 1.172-.72 2.907-.31 1.736-.338 3.33 1.002-1.65 1.595-3.302.592-1.665.592-3.033 0-1.073-.395-1.073z" style="-inkscape-font-specification:'Pacifico, Normal';font-variant-ligatures:no-common-ligatures;font-variant-caps:normal;font-variant-numeric:normal;font-feature-settings:normal;text-align:start"/>
    <path d="M91.531 10.118q.184 0 .282.17.113.168.113.465 0 .564-.268.875-.65.748-1.34 1.227-.678.48-1.553.48-.72 0-1.086-.41-.367-.422-.367-1.213 0-.395.197-1.41.184-.89.184-1.228 0-.226-.155-.226-.184 0-.522.48-.34.465-.678 1.241t-.55 1.637q-.268 1.13-1.327 1.13-.423 0-.564-.297-.127-.31-.127-1.1 0-.452.014-.72l.014-1.13q0-2.173.438-4.53.451-2.356 1.312-3.95Q86.423 0 87.636 0q.65 0 1.045.565.409.55.409 1.439 0 1.425-.833 2.963-.832 1.524-2.71 3.57-.041.734-.041 1.51.465-1.2 1.03-1.947.578-.762 1.129-1.087.564-.324 1.03-.324.917 0 .917.917 0 .55-.31 1.99-.269 1.227-.269 1.622 0 .565.41.565.282 0 .663-.339.395-.353 1.044-1.129.17-.197.381-.197zm-4.19-8.72q-.255 0-.565.733-.31.72-.607 1.961-.282 1.228-.466 2.681.875-1.03 1.44-2.243.578-1.214.578-2.202 0-.451-.099-.691-.099-.24-.282-.24z" style="-inkscape-font-specification:'Pacifico, Normal';font-variant-ligatures:no-common-ligatures;font-variant-caps:normal;font-variant-numeric:normal;font-feature-settings:normal;text-align:start"/>
    <path d="M97.98 8.932q.183 0 .281.184.1.183.1.466 0 .677-.41.804-.847.296-1.863.339-.268 1.185-1.058 1.905-.79.705-1.792.705-.847 0-1.454-.41-.592-.408-.903-1.086-.31-.677-.31-1.467 0-1.073.41-1.905.408-.847 1.128-1.313.72-.48 1.595-.48 1.072 0 1.721.749.663.733.776 1.82.663-.042 1.58-.282.114-.029.198-.029zm-4.63 2.907q.452 0 .777-.367.339-.366.451-1.058-.437-.296-.677-.776-.226-.48-.226-1.016 0-.226.043-.452h-.07q-.565 0-.946.55-.367.537-.367 1.525 0 .776.296 1.185.31.41.72.41z" style="-inkscape-font-specification:'Pacifico, Normal';font-variant-ligatures:no-common-ligatures;font-variant-caps:normal;font-variant-numeric:normal;font-feature-settings:normal;text-align:start"/>
    <path d="M98.588 13.335q-.635 0-1.044-.578-.395-.593-.395-1.468 0-1.058.141-1.933.141-.89.466-1.877.14-.423.395-.607.254-.183.804-.183.31 0 .424.099.127.098.127.296 0 .113-.156.762-.14.522-.225.945-.283 1.482-.283 1.976 0 .296.071.423.07.113.226.113.211 0 .522-.423.324-.424.677-1.284.367-.861.706-2.117.113-.423.338-.607.24-.183.706-.183.325 0 .452.084.127.07.127.283 0 .352-.353 1.933-.395 1.806-.395 2.23 0 .268.113.423.112.14.296.14.282 0 .663-.338.395-.353 1.044-1.129.17-.197.381-.197.184 0 .283.17.112.168.112.465 0 .564-.268.875-.606.748-1.312 1.227-.691.48-1.58.48-.678 0-1.002-.522-.31-.522-.31-1.468-.24.96-.72 1.482-.48.508-1.03.508z" style="-inkscape-font-specification:'Pacifico, Normal';font-variant-ligatures:no-common-ligatures;font-variant-caps:normal;font-variant-numeric:normal;font-feature-settings:normal;text-align:start"/>
    <path d="M109.974 10.118q.184 0 .283.17.113.168.113.465 0 .564-.269.875-.522.635-1.481 1.17-.946.537-2.032.537-1.482 0-2.3-.804-.819-.805-.819-2.202 0-.973.41-1.806.409-.846 1.128-1.34.734-.494 1.651-.494.819 0 1.313.494.494.48.494 1.312 0 .974-.706 1.68-.691.69-2.357 1.1.353.649 1.341.649.635 0 1.44-.437.818-.452 1.41-1.172.17-.197.381-.197zm-3.556-2.046q-.522 0-.889.606-.352.607-.352 1.468v.028q.832-.197 1.312-.593.48-.395.48-.917 0-.268-.155-.423-.142-.17-.396-.17z" style="-inkscape-font-specification:'Pacifico, Normal';font-variant-ligatures:no-common-ligatures;font-variant-caps:normal;font-variant-numeric:normal;font-feature-settings:normal;text-align:start"/>
    <path d="M115.514 10.118q.184 0 .282.17.113.168.113.465 0 .564-.268.875-.607.748-1.326 1.227-.72.48-1.651.48-2.879 0-2.879-4.05 0-.62.042-1.256h-.55q-.423 0-.578-.155-.142-.155-.142-.494 0-.79.635-.79h.805q.24-1.552.734-2.836.493-1.284 1.185-2.046.705-.762 1.51-.762.592 0 .931.522.339.522.339 1.312 0 2.187-1.835 3.81h1.58q.227 0 .325.099.1.099.1.367 0 .973-1.595.973h-1.722q-.028.706-.028 1.101 0 1.468.338 2.06.353.593 1.101.593.607 0 1.073-.367.465-.367 1.1-1.1.17-.198.381-.198zm-2.47-7.818q-.21 0-.479.536-.254.523-.494 1.468-.226.931-.38 2.074.832-.72 1.24-1.608.424-.903.424-1.637 0-.833-.31-.833z" style="-inkscape-font-specification:'Pacifico, Normal';font-variant-ligatures:no-common-ligatures;font-variant-caps:normal;font-variant-numeric:normal;font-feature-settings:normal;text-align:start"/>
    <path d="M120.503 10.118q.183 0 .282.17.113.168.113.465 0 .564-.268.875-.607.748-1.327 1.227-.72.48-1.65.48-2.88 0-2.88-4.05 0-.62.043-1.256h-.55q-.424 0-.579-.155-.141-.155-.141-.494 0-.79.635-.79h.804q.24-1.552.734-2.836.494-1.284 1.185-2.046.706-.762 1.51-.762.593 0 .932.522.338.522.338 1.312 0 2.187-1.834 3.81h1.58q.226 0 .325.099t.099.367q0 .973-1.595.973h-1.722q-.028.706-.028 1.101 0 1.468.339 2.06.353.593 1.1.593.607 0 1.073-.367.466-.367 1.1-1.1.17-.198.382-.198zm-2.47-7.818q-.211 0-.48.536-.254.523-.493 1.468-.226.931-.381 2.074.832-.72 1.241-1.608.424-.903.424-1.637 0-.833-.31-.833z" style="-inkscape-font-specification:'Pacifico, Normal';font-variant-ligatures:no-common-ligatures;font-variant-caps:normal;font-variant-numeric:normal;font-feature-settings:normal;text-align:start"/>
    <path d="M126.042 10.118q.184 0 .283.17.113.168.113.465 0 .564-.269.875-.522.635-1.481 1.17-.946.537-2.032.537-1.482 0-2.3-.804-.819-.805-.819-2.202 0-.973.41-1.806.409-.846 1.128-1.34.734-.494 1.651-.494.819 0 1.313.494.494.48.494 1.312 0 .974-.706 1.68-.691.69-2.357 1.1.353.649 1.341.649.635 0 1.44-.437.818-.452 1.41-1.172.17-.197.381-.197zm-3.556-2.046q-.522 0-.889.606-.352.607-.352 1.468v.028q.832-.197 1.312-.593.48-.395.48-.917 0-.268-.155-.423-.142-.17-.396-.17z" style="-inkscape-font-specification:'Pacifico, Normal';font-variant-ligatures:no-common-ligatures;font-variant-caps:normal;font-variant-numeric:normal;font-feature-settings:normal;text-align:start"/>
    <path d="M130.342 10.118q.156 1.157.452 2.286.056.183.056.38 0 .636-.776.636-.437 0-.677-.24-.226-.24-.423-.903l-.014-.057q-.537.663-.974.89-.423.225-.988.225-.86 0-1.425-.635-.55-.65-.55-1.68 0-1.128.48-2.088.48-.96 1.312-1.566.832-.62 1.862-.748.268-2.667 1.016-4.642Q130.455 0 131.711 0q.607 0 1.002.55.41.55.41 1.665 0 1.553-.763 3.627-.762 2.074-2.018 4.276zm1.214-8.735q-.41 0-.776 2.088-.353 2.089-.48 4.544 1.566-3.386 1.566-5.503 0-.536-.098-.833-.085-.296-.212-.296zm-4.064 10.527q.282 0 .536-.212.268-.211.677-.818-.14-1.03-.14-2.131 0-.437.013-.677-.776.225-1.284 1.03-.508.804-.508 1.778 0 1.03.706 1.03zM142.193 10.118q.183 0 .282.17.113.168.113.465 0 .564-.268.875-.607.748-1.326 1.227-.72.48-1.651.48-2.88 0-2.88-4.05 0-.62.043-1.256h-.55q-.423 0-.579-.155-.14-.155-.14-.494 0-.79.634-.79h.805q.24-1.552.733-2.836.494-1.284 1.186-2.046.705-.762 1.51-.762.592 0 .93.522.34.522.34 1.312 0 2.187-1.835 3.81h1.58q.226 0 .325.099t.099.367q0 .973-1.595.973h-1.721q-.028.706-.028 1.101 0 1.468.338 2.06.353.593 1.1.593.608 0 1.073-.367.466-.367 1.101-1.1.17-.198.381-.198zm-2.47-7.818q-.211 0-.48.536-.253.523-.493 1.468-.226.931-.381 2.074.832-.72 1.242-1.608.423-.903.423-1.637 0-.833-.31-.833z" style="-inkscape-font-specification:'Pacifico, Normal';font-variant-ligatures:no-common-ligatures;font-variant-caps:normal;font-variant-numeric:normal;font-feature-settings:normal;text-align:start"/>
    <path d="M149.27 10.118q.184 0 .283.17.113.168.113.465 0 .564-.268.875-.65.748-1.34 1.227-.678.48-1.553.48-.72 0-1.086-.41-.367-.422-.367-1.213 0-.395.197-1.41.184-.89.184-1.228 0-.226-.156-.226-.183 0-.522.48-.338.465-.677 1.241t-.55 1.637q-.268 1.13-1.327 1.13-.423 0-.564-.297-.127-.31-.127-1.1 0-.452.014-.72l.014-1.13q0-2.173.437-4.53.452-2.356 1.313-3.95Q144.163 0 145.376 0q.65 0 1.044.565.41.55.41 1.439 0 1.425-.833 2.963-.832 1.524-2.71 3.57-.042.734-.042 1.51.466-1.2 1.03-1.947.58-.762 1.13-1.087.564-.324 1.03-.324.917 0 .917.917 0 .55-.31 1.99-.269 1.227-.269 1.622 0 .565.41.565.282 0 .663-.339.395-.353 1.044-1.129.17-.197.38-.197zm-4.19-8.72q-.254 0-.565.733-.31.72-.606 1.961-.283 1.228-.466 2.681.875-1.03 1.44-2.243.578-1.214.578-2.202 0-.451-.099-.691-.099-.24-.282-.24z" style="-inkscape-font-specification:'Pacifico, Normal';font-variant-ligatures:no-common-ligatures;font-variant-caps:normal;font-variant-numeric:normal;font-feature-settings:normal;text-align:start"/>
    <path d="M153.574 10.541q.184 0 .282.17.113.169.113.465 0 .508-.24.875-.395.607-1.044.945-.635.339-1.524.339-1.355 0-2.102-.804-.748-.819-.748-2.202 0-.973.409-1.806.41-.847 1.129-1.34.734-.494 1.65-.494.82 0 1.313.494.494.48.494 1.312 0 .974-.706 1.68-.691.69-2.37 1.1.338.649 1.143.649.578 0 .945-.268.381-.268.875-.903.17-.212.381-.212zm-2.314-2.47q-.522 0-.89.607-.352.607-.352 1.468v.028q.833-.197 1.312-.593.48-.395.48-.917 0-.268-.155-.423-.141-.17-.395-.17zM159.568 5.757q-.592 0-.889-.268-.296-.282-.296-.776 0-.494.38-.818.396-.339.975-.339.522 0 .846.254.325.254.325.72 0 .564-.367.903-.367.324-.974.324zm2.54 4.389q.184 0 .282.183.113.17.113.438 0 .324-.098.508-.1.183-.31.324-.989.65-2.64 1.793-.55 2.935-1.425 4.614-.875 1.679-2.23 1.679-.733 0-1.17-.451-.452-.438-.452-1.158 0-1.002.776-2.145.776-1.128 2.92-2.793l.1-.72q.197-1.355.31-2.667.085-.762.268-2.272.057-.41.31-.593.255-.197.777-.197.423 0 .55.127.141.127.141.352 0 .65-.465 3.585l-.142.973q1.13-.846 2.06-1.467.184-.113.325-.113zm-6.152 8.17q.367 0 .804-.832.438-.833.819-2.681-1.073.917-1.539 1.65-.48.749-.48 1.313 0 .55.396.55z" style="-inkscape-font-specification:'Pacifico, Normal';font-variant-ligatures:no-common-ligatures;font-variant-caps:normal;font-variant-numeric:normal;font-feature-settings:normal;text-align:start"/>
    <path d="M163.24 13.335q-.876 0-1.398-.635-.522-.635-.522-1.665 0-1.129.522-2.13.522-1.017 1.383-1.624.875-.62 1.849-.62.31 0 .409.127.113.112.183.423.297-.057.621-.057.692 0 .692.494 0 .297-.212 1.411-.325 1.623-.325 2.258 0 .212.1.339.112.127.281.127.268 0 .65-.339.38-.353 1.03-1.129.169-.197.38-.197.184 0 .283.17.113.168.113.465 0 .564-.268.875-.579.72-1.228 1.213-.65.494-1.256.494-.466 0-.86-.31-.382-.325-.58-.875-.733 1.185-1.848 1.185zm.507-1.425q.31 0 .593-.367.282-.367.409-.974l.522-2.596q-.593.014-1.1.451-.494.424-.79 1.13-.297.705-.297 1.495 0 .438.17.65.183.21.493.21z" style="-inkscape-font-specification:'Pacifico, Normal';font-variant-ligatures:no-common-ligatures;font-variant-caps:normal;font-variant-numeric:normal;font-feature-settings:normal;text-align:start"/>
    <path d="M175.37 10.146q.184 0 .283.183.113.17.113.438 0 .324-.1.508-.098.183-.31.324-1.213.819-1.778 1.214l-.903.607q-.536 2.92-1.41 4.586-.862 1.68-2.202 1.68-.72 0-1.171-.452-.452-.438-.452-1.158 0-1.001.79-2.159.79-1.143 2.964-2.822l.084-.55q-.24.38-.635.593-.38.197-.762.197-.875 0-1.397-.635t-.522-1.665q0-1.129.522-2.13.522-1.017 1.383-1.624.875-.62 1.849-.62.31 0 .409.127.113.112.183.423.268-.057.621-.057t.494.113q.155.1.155.41 0 .169-.014.268-.056.437-.353 2.215-.056.339-.127.748-.056.395-.127.847 1.087-.847 2.089-1.496.183-.113.324-.113zm-4.98 1.764q.324 0 .62-.395t.423-1.13l.452-2.412q-.579.014-1.072.451-.494.424-.79 1.13-.297.705-.297 1.495 0 .438.17.65.183.21.493.21zm-1.172 6.406q.353 0 .79-.846.452-.847.861-2.696-1.087.932-1.566 1.68-.48.748-.48 1.312 0 .24.085.395.098.155.31.155z" style="-inkscape-font-specification:'Pacifico, Normal';font-variant-ligatures:no-common-ligatures;font-variant-caps:normal;font-variant-numeric:normal;font-feature-settings:normal;text-align:start"/>
    <path d="M181.985 10.146q.183 0 .282.183.113.17.113.438 0 .324-.099.508-.098.183-.31.324-1.214.819-1.778 1.214l-.903.607q-.536 2.92-1.411 4.586-.861 1.68-2.202 1.68-.72 0-1.17-.452-.452-.438-.452-1.158 0-1.001.79-2.159.79-1.143 2.963-2.822l.085-.55q-.24.38-.635.593-.381.197-.762.197-.875 0-1.397-.635t-.522-1.665q0-1.129.522-2.13.522-1.017 1.383-1.624.875-.62 1.848-.62.31 0 .41.127.112.112.183.423.268-.057.62-.057.354 0 .495.113.155.1.155.41 0 .169-.014.268-.057.437-.353 2.215-.056.339-.127.748-.056.395-.127.847 1.087-.847 2.089-1.496.183-.113.324-.113zm-4.981 1.764q.324 0 .62-.395.297-.395.424-1.13l.452-2.412q-.579.014-1.073.451-.494.424-.79 1.13-.296.705-.296 1.495 0 .438.169.65.183.21.494.21zm-1.171 6.406q.352 0 .79-.846.451-.847.86-2.696-1.086.932-1.566 1.68-.48.748-.48 1.312 0 .24.085.395.099.155.31.155z" style="-inkscape-font-specification:'Pacifico, Normal';font-variant-ligatures:no-common-ligatures;font-variant-caps:normal;font-variant-numeric:normal;font-feature-settings:normal;text-align:start"/>
    <path d="M187.806 10.118q.184 0 .282.17.113.168.113.465 0 .564-.268.875-.522.635-1.482 1.17-.945.537-2.032.537-1.481 0-2.3-.804-.818-.805-.818-2.202 0-.973.41-1.806.408-.846 1.128-1.34.734-.494 1.651-.494.818 0 1.312.494.494.48.494 1.312 0 .974-.705 1.68-.692.69-2.357 1.1.353.649 1.34.649.636 0 1.44-.437.818-.452 1.411-1.172.17-.197.381-.197zm-3.556-2.046q-.522 0-.889.606-.353.607-.353 1.468v.028q.833-.197 1.313-.593.48-.395.48-.917 0-.268-.156-.423-.14-.17-.395-.17z" style="-inkscape-font-specification:'Pacifico, Normal';font-variant-ligatures:no-common-ligatures;font-variant-caps:normal;font-variant-numeric:normal;font-feature-settings:normal;text-align:start"/>
    <path d="M192.106 10.118q.155 1.157.452 2.286.056.183.056.38 0 .636-.776.636-.438 0-.677-.24-.226-.24-.424-.903l-.014-.057q-.536.663-.974.89-.423.225-.987.225-.861 0-1.426-.635-.55-.65-.55-1.68 0-1.128.48-2.088.48-.96 1.312-1.566.833-.62 1.863-.748.268-2.667 1.016-4.642Q192.219 0 193.475 0q.607 0 1.002.55.409.55.409 1.665 0 1.553-.762 3.627t-2.018 4.276zm1.214-8.735q-.41 0-.777 2.088-.352 2.089-.48 4.544 1.567-3.386 1.567-5.503 0-.536-.099-.833-.084-.296-.211-.296zm-4.064 10.527q.282 0 .536-.212.268-.211.677-.818-.141-1.03-.141-2.131 0-.437.014-.677-.776.225-1.284 1.03-.508.804-.508 1.778 0 1.03.706 1.03zM203.957 10.118q.183 0 .282.17.113.168.113.465 0 .564-.268.875-.522.635-1.482 1.17-.945.537-2.032.537-1.482 0-2.3-.804-.819-.805-.819-2.202 0-.973.41-1.806.409-.846 1.129-1.34.733-.494 1.65-.494.819 0 1.313.494.494.48.494 1.312 0 .974-.706 1.68-.691.69-2.356 1.1.352.649 1.34.649.635 0 1.44-.437.818-.452 1.41-1.172.17-.197.382-.197zM200.4 8.072q-.522 0-.89.606-.352.607-.352 1.468v.028q.832-.197 1.312-.593.48-.395.48-.917 0-.268-.155-.423-.141-.17-.395-.17z" style="-inkscape-font-specification:'Pacifico, Normal';font-variant-ligatures:no-common-ligatures;font-variant-caps:normal;font-variant-numeric:normal;font-feature-settings:normal;text-align:start"/>
    <path d="M211.135 10.118q.184 0 .283.17.112.168.112.465 0 .564-.268.875-.578.705-1.27 1.213-.691.494-1.368.494-1.073 0-1.637-1.256-.593.748-1.045 1.002-.437.254-1.03.254-.86 0-1.425-.635-.55-.65-.55-1.68 0-1.128.48-2.088.48-.973 1.312-1.58.847-.62 1.89-.734.269-2.737 1.017-4.67Q208.398 0 209.626 0q.606 0 1.001.55.41.55.41 1.666 0 1.58-.777 3.697-.776 2.116-2.074 4.346.056.818.24 1.171.198.353.494.353.38 0 .776-.339.395-.338 1.058-1.129.17-.197.381-.197zm-1.665-8.735q-.268 0-.536.96-.268.945-.466 2.483-.183 1.538-.268 3.217 1.58-3.443 1.58-5.531 0-.536-.098-.833-.085-.296-.212-.296zm-4.064 10.527q.268 0 .536-.212.269-.226.678-.818-.141-.762-.141-1.708 0-.338.028-1.1-.776.24-1.298 1.044-.508.79-.508 1.764 0 1.03.705 1.03z" style="-inkscape-font-specification:'Pacifico, Normal';font-variant-ligatures:no-common-ligatures;font-variant-caps:normal;font-variant-numeric:normal;font-feature-settings:normal;text-align:start"/>
    <path d="M217.483 10.146q.184 0 .283.183.112.17.112.438 0 .324-.098.508-.1.183-.31.324-1.214.819-1.779 1.214l-.903.607q-.536 2.92-1.411 4.586-.86 1.68-2.201 1.68-.72 0-1.172-.452-.451-.438-.451-1.158 0-1.001.79-2.159.79-1.143 2.963-2.822l.085-.55q-.24.38-.635.593-.38.197-.762.197-.875 0-1.397-.635t-.522-1.665q0-1.129.522-2.13.522-1.017 1.383-1.624.875-.62 1.849-.62.31 0 .409.127.113.112.183.423.268-.057.621-.057t.494.113q.155.1.155.41 0 .169-.014.268-.056.437-.353 2.215-.056.339-.127.748-.056.395-.127.847 1.087-.847 2.089-1.496.183-.113.324-.113zm-4.98 1.764q.324 0 .62-.395t.423-1.13l.452-2.412q-.579.014-1.073.451-.493.424-.79 1.13-.296.705-.296 1.495 0 .438.17.65.183.21.493.21zm-1.172 6.406q.353 0 .79-.846.452-.847.86-2.696-1.086.932-1.565 1.68-.48.748-.48 1.312 0 .24.084.395.1.155.31.155z" style="-inkscape-font-specification:'Pacifico, Normal';font-variant-ligatures:no-common-ligatures;font-variant-caps:normal;font-variant-numeric:normal;font-feature-settings:normal;text-align:start"/>
    <path d="M222.063 10.541q.183 0 .282.17.113.169.113.465 0 .508-.24.875-.395.607-1.044.945-.635.339-1.524.339-1.355 0-2.103-.804-.748-.819-.748-2.202 0-.973.41-1.806.409-.847 1.128-1.34.734-.494 1.651-.494.819 0 1.313.494.493.48.493 1.312 0 .974-.705 1.68-.692.69-2.37 1.1.338.649 1.142.649.579 0 .946-.268.38-.268.875-.903.169-.212.38-.212zm-2.315-2.47q-.522 0-.889.607-.352.607-.352 1.468v.028q.832-.197 1.312-.593.48-.395.48-.917 0-.268-.156-.423-.14-.17-.395-.17zM233.743 8.932q.184 0 .283.184.099.183.099.466 0 .677-.41.804-.846.296-1.862.339-.268 1.185-1.059 1.905-.79.705-1.792.705-.846 0-1.453-.41-.593-.408-.903-1.086-.31-.677-.31-1.467 0-1.073.408-1.905.41-.847 1.13-1.313.719-.48 1.594-.48 1.072 0 1.721.749.664.733.777 1.82.663-.042 1.58-.282.113-.029.198-.029zm-4.628 2.907q.452 0 .776-.367.339-.366.452-1.058-.438-.296-.678-.776-.225-.48-.225-1.016 0-.226.042-.452h-.07q-.565 0-.946.55-.367.537-.367 1.525 0 .776.296 1.185.31.41.72.41z" style="-inkscape-font-specification:'Pacifico, Normal';font-variant-ligatures:no-common-ligatures;font-variant-caps:normal;font-variant-numeric:normal;font-feature-settings:normal;text-align:start"/>
    <path d="M238.544 9.313q.395 0 .395.593 0 1.115-1.75 1.115-.339 0-.974-.127.184.875.297 1.947.127 1.058.127 1.75 0 1.524-.494 2.328-.494.805-1.298.805-1.016 0-1.454-1.44-.423-1.44-.423-4.346 0-2.71.578-5.49.593-2.793 1.609-4.614Q236.187 0 237.415 0q.663 0 1.03.593.38.592.38 1.594 0 3.316-3.964 7.225-.141 1.383-.141 2.427 0 1.454.098 2.978.1 1.538.325 1.538.423 0 .423-1.468 0-1.1-.155-2.13-.141-1.03-.395-2.174-.014-.183.113-.465.14-.283.338-.494.198-.212.353-.212.282 0 .678.028.127.014.296.014.564 0 1.256-.098l.24-.029q.127-.014.254-.014zm-1.426-7.916q-.254 0-.635.86-.366.862-.733 2.287-.367 1.41-.635 2.991 1.129-1.284 1.735-2.667.607-1.397.621-2.61 0-.861-.353-.861zM243.521 13.335q-.804 0-1.312-.635-.494-.635-.494-1.665 0-1.129.522-2.13.522-1.017 1.383-1.624.875-.62 1.848-.62.31 0 .41.127.112.112.183.423.268-.057.593-.057.338 0 .522.17.183.17.183.48 0 .324-.14 1.128-.156.861-.24 1.651-.086.777-.086 1.75 0 .536-.225.776-.212.226-.706.226-.48 0-.72-.226-.225-.24-.225-.762l.014-.225q-.438 1.213-1.51 1.213zm.55-1.425q.395 0 .72-.55.325-.55.579-1.962l.268-1.425q-.579.014-1.073.451-.494.424-.79 1.13-.296.705-.296 1.495 0 .423.155.65.17.21.437.21zM262.65 8.975q.042-.014.141-.014.212 0 .325.14.113.142.113.382 0 .437-.17.691-.169.24-.508.353-.649.212-1.383.212-.62 0-1.17-.17-.41.664-.904 1.37-.564.803-.974 1.1-.395.296-.903.296-.564 0-.86-.437-.283-.438-.353-1.44l-.07-1.03q-.438 1.186-.791 1.806-.339.621-.692.861-.338.24-.804.24-.578 0-.917-.451-.325-.452-.41-1.426-.169-1.975-.169-3.457v-.494q.014-.465.254-.649.24-.183.72-.183.367 0 .536.169.184.155.184.536 0 1.623.197 4.22.96-2.018 1.764-4.206.155-.423.367-.564.226-.155.536-.155.381 0 .522.155.156.155.156.55 0 1.623.197 4.22.847-1.256 1.27-2.004-.212-.41-.212-.974 0-.48.212-.931.212-.452.579-.734t.832-.282q.41 0 .663.296.254.282.254.833 0 .635-.338 1.453.536-.028 1.425-.212z" style="-inkscape-font-specification:'Pacifico, Normal';font-variant-ligatures:no-common-ligatures;font-variant-caps:normal;font-variant-numeric:normal;font-feature-settings:normal;text-align:start"/>
    <path d="M263.839 5.757q-.593 0-.89-.268-.296-.282-.296-.776 0-.494.381-.818.395-.339.974-.339.522 0 .847.254.324.254.324.72 0 .564-.367.903-.367.324-.973.324zm-.113 7.578q-.918 0-1.34-.65-.41-.648-.41-1.72 0-.636.155-1.623.17-1.002.423-1.863.127-.452.34-.621.21-.17.676-.17.72 0 .72.48 0 .353-.268 1.637-.339 1.553-.339 2.103 0 .423.113.65.113.225.381.225.254 0 .635-.353t1.016-1.115q.17-.197.381-.197.184 0 .282.17.113.168.113.465 0 .564-.268.875-1.397 1.707-2.61 1.707z" style="-inkscape-font-specification:'Pacifico, Normal';font-variant-ligatures:no-common-ligatures;font-variant-caps:normal;font-variant-numeric:normal;font-feature-settings:normal;text-align:start"/>
    <path d="M266.465 13.335q-.537 0-.762-.564-.212-.565-.212-1.807 0-1.834.522-3.485.127-.41.41-.593.296-.197.818-.197.282 0 .395.07.113.07.113.268 0 .226-.212 1.016-.141.565-.226.988-.085.423-.14 1.044.465-1.213 1.043-1.975.579-.762 1.13-1.087.564-.324 1.03-.324.917 0 .917.917 0 .55-.31 1.99-.27 1.227-.27 1.622 0 .565.41.565.282 0 .663-.339.396-.353 1.045-1.129.169-.197.38-.197.184 0 .283.169.113.17.113.466 0 .564-.268.875-.607.747-1.313 1.227-.691.48-1.58.48-.72 0-1.087-.41-.367-.423-.367-1.213 0-.395.198-1.41.183-.89.183-1.229 0-.225-.155-.225-.183 0-.522.48-.324.465-.677 1.241-.339.776-.55 1.637-.156.663-.367.903-.198.226-.635.226z" style="-inkscape-font-specification:'Pacifico, Normal';font-variant-ligatures:no-common-ligatures;font-variant-caps:normal;font-variant-numeric:normal;font-feature-settings:normal;text-align:start"/>
    <path d="M277.247 7.154q.353 0 .494.113.155.1.155.41 0 .169-.014.268-.057.437-.353 2.257-.212 1.228-.268 1.623-.536 3.64-1.454 5.743-.903 2.117-2.427 2.117-.72 0-1.17-.451-.452-.438-.452-1.158 0-1.001.79-2.159.79-1.143 2.963-2.822l.085-.55q-.24.38-.635.593-.381.197-.762.197-.875 0-1.397-.635t-.522-1.665q0-1.129.522-2.13.522-1.017 1.383-1.624.875-.62 1.848-.62.31 0 .41.127.112.112.183.423.268-.057.62-.057zm-2.54 4.756q.324 0 .62-.395.297-.395.424-1.13l.452-2.412q-.579.014-1.073.451-.494.424-.79 1.13-.296.705-.296 1.495 0 .438.169.65.183.21.494.21zm-1.171 6.406q.352 0 .79-.846.451-.847.86-2.696-1.086.932-1.566 1.68-.48.748-.48 1.312 0 .24.085.395.099.155.31.155zM279.776 13.335q-.621 0-.946-.339-.31-.338-.31-.889 0-.635.353-1.016.366-.38 1.016-.38.62 0 .93.31.325.296.325.889 0 .649-.366 1.044-.367.381-1.002.381z" style="-inkscape-font-specification:'Pacifico, Normal';font-variant-ligatures:no-common-ligatures;font-variant-caps:normal;font-variant-numeric:normal;font-feature-settings:normal;text-align:start"/>
  </g>
</svg>
