<?xml version="1.0" encoding="UTF-8" standalone="no"?>
<!-- Created with Inkscape (http://www.inkscape.org/) -->

<svg
   xmlns:osb="http://www.openswatchbook.org/uri/2009/osb"
   xmlns:dc="http://purl.org/dc/elements/1.1/"
   xmlns:cc="http://creativecommons.org/ns#"
   xmlns:rdf="http://www.w3.org/1999/02/22-rdf-syntax-ns#"
   xmlns:svg="http://www.w3.org/2000/svg"
   xmlns="http://www.w3.org/2000/svg"
   xmlns:xlink="http://www.w3.org/1999/xlink"
   xmlns:sodipodi="http://sodipodi.sourceforge.net/DTD/sodipodi-0.dtd"
   xmlns:inkscape="http://www.inkscape.org/namespaces/inkscape"
   version="1.1"
   id="svg2"
   xml:space="preserve"
   width="142.00012mm"
   height="218.99986mm"
   viewBox="0 0 536.69336 827.716"
   sodipodi:docname="invitation.svg"
   inkscape:version="0.92.2 (unknown)"><metadata
     id="metadata8"><rdf:RDF><cc:Work
         rdf:about=""><dc:format>image/svg+xml</dc:format><dc:type
           rdf:resource="http://purl.org/dc/dcmitype/StillImage" /><dc:title /></cc:Work></rdf:RDF></metadata><defs
     id="defs6"><linearGradient
       id="linearGradient1633"
       osb:paint="solid"><stop
         style="stop-color:#3ab54a;stop-opacity:1;"
         offset="0"
         id="stop1631" /></linearGradient><linearGradient
       id="linearGradient2325"
       osb:paint="solid"><stop
         style="stop-color:#1a1a1a;stop-opacity:1;"
         offset="0"
         id="stop2323" /></linearGradient><pattern
       patternUnits="userSpaceOnUse"
       width="512"
       height="512"
       id="pattern3239"><rect
         id="rect3237"
         y="0"
         x="0"
         height="512"
         width="512"
         style="fill:url(#pattern3242);stroke:none" /></pattern><pattern
       inkscape:collect="always"
       xlink:href="#pattern3232"
       id="pattern3242" /><pattern
       patternUnits="userSpaceOnUse"
       width="512"
       height="512"
       id="pattern3232"><rect
         id="rect3230"
         y="0"
         x="0"
         height="512"
         width="512"
         style="fill:url(#pattern3235);stroke:none" /></pattern><pattern
       inkscape:collect="always"
       xlink:href="#pattern3225"
       id="pattern3235" /><pattern
       patternUnits="userSpaceOnUse"
       width="512"
       height="512"
       id="pattern3225"><rect
         id="rect3223"
         y="0"
         x="0"
         height="512"
         width="512"
         style="fill:url(#pattern3228);stroke:none" /></pattern><pattern
       inkscape:collect="always"
       xlink:href="#pattern3218"
       id="pattern3228" /><pattern
       patternUnits="userSpaceOnUse"
       width="512"
       height="512"
       id="pattern3218"><rect
         id="rect3216"
         y="0"
         x="0"
         height="512"
         width="512"
         style="fill:url(#pattern3221);stroke:none" /></pattern><pattern
       inkscape:collect="always"
       xlink:href="#pattern3211"
       id="pattern3221" /><pattern
       patternUnits="userSpaceOnUse"
       width="512"
       height="512"
       id="pattern3211"><rect
         id="rect1921"
         y="0"
         x="0"
         height="512"
         width="512"
         style="fill:url(#pattern3214);stroke:none" /></pattern><pattern
       inkscape:collect="always"
       xlink:href="#pattern1894"
       id="pattern3214" /><pattern
       patternUnits="userSpaceOnUse"
       width="512"
       height="512"
       id="pattern1894" /><clipPath
       id="patternClipPath"
       clipPathUnits="userSpaceOnUse"><rect
         style="color:#000000;display:inline;overflow:visible;visibility:visible;opacity:1;fill:#ffff00;fill-opacity:1;fill-rule:nonzero;stroke:none;stroke-width:20;stroke-linecap:square;stroke-linejoin:miter;stroke-miterlimit:4;stroke-dasharray:none;stroke-dashoffset:1.09889996;stroke-opacity:1;marker:none;enable-background:accumulate"
         id="clipPathRect"
         width="512"
         height="512"
         x="0"
         y="0" /></clipPath><pattern
       patternUnits="userSpaceOnUse"
       width="512"
       height="512"
       id="pattern3239-3"><rect
         id="rect3237-6"
         y="0"
         x="0"
         height="512"
         width="512"
         style="fill:url(#pattern3242-7);stroke:none" /></pattern><pattern
       inkscape:collect="always"
       xlink:href="#pattern3232-5"
       id="pattern3242-7" /><pattern
       patternUnits="userSpaceOnUse"
       width="512"
       height="512"
       id="pattern3232-5"><rect
         id="rect3230-3"
         y="0"
         x="0"
         height="512"
         width="512"
         style="fill:url(#pattern3235-5);stroke:none" /></pattern><pattern
       inkscape:collect="always"
       xlink:href="#pattern3225-6"
       id="pattern3235-5" /><pattern
       patternUnits="userSpaceOnUse"
       width="512"
       height="512"
       id="pattern3225-6"><rect
         id="rect3223-2"
         y="0"
         x="0"
         height="512"
         width="512"
         style="fill:url(#pattern3228-9);stroke:none" /></pattern><pattern
       inkscape:collect="always"
       xlink:href="#pattern3218-1"
       id="pattern3228-9" /><pattern
       patternUnits="userSpaceOnUse"
       width="512"
       height="512"
       id="pattern3218-1"><rect
         id="rect3216-2"
         y="0"
         x="0"
         height="512"
         width="512"
         style="fill:url(#pattern3221-7);stroke:none" /></pattern><pattern
       inkscape:collect="always"
       xlink:href="#pattern3211-0"
       id="pattern3221-7" /><pattern
       patternUnits="userSpaceOnUse"
       width="512"
       height="512"
       id="pattern3211-0"><rect
         id="rect1921-9"
         y="0"
         x="0"
         height="512"
         width="512"
         style="fill:url(#pattern3214-3);stroke:none" /></pattern><pattern
       inkscape:collect="always"
       xlink:href="#pattern1894-6"
       id="pattern3214-3" /><pattern
       patternUnits="userSpaceOnUse"
       width="512"
       height="512"
       id="pattern1894-6" /><clipPath
       id="patternClipPath-3"
       clipPathUnits="userSpaceOnUse"><rect
         style="color:#000000;display:inline;overflow:visible;visibility:visible;opacity:1;fill:#ffff00;fill-opacity:1;fill-rule:nonzero;stroke:none;stroke-width:20;stroke-linecap:square;stroke-linejoin:miter;stroke-miterlimit:4;stroke-dasharray:none;stroke-dashoffset:1.09889996;stroke-opacity:1;marker:none;enable-background:accumulate"
         id="clipPathRect-1"
         width="512"
         height="512"
         x="0"
         y="0" /></clipPath><pattern
       patternUnits="userSpaceOnUse"
       width="512"
       height="512"
       id="pattern3239-9"><rect
         id="rect3237-4"
         y="0"
         x="0"
         height="512"
         width="512"
         style="fill:url(#pattern3242-78);stroke:none" /></pattern><pattern
       inkscape:collect="always"
       xlink:href="#pattern3232-4"
       id="pattern3242-78" /><pattern
       patternUnits="userSpaceOnUse"
       width="512"
       height="512"
       id="pattern3232-4"><rect
         id="rect3230-5"
         y="0"
         x="0"
         height="512"
         width="512"
         style="fill:url(#pattern3235-0);stroke:none" /></pattern><pattern
       inkscape:collect="always"
       xlink:href="#pattern3225-3"
       id="pattern3235-0" /><pattern
       patternUnits="userSpaceOnUse"
       width="512"
       height="512"
       id="pattern3225-3"><rect
         id="rect3223-6"
         y="0"
         x="0"
         height="512"
         width="512"
         style="fill:url(#pattern3228-1);stroke:none" /></pattern><pattern
       inkscape:collect="always"
       xlink:href="#pattern3218-0"
       id="pattern3228-1" /><pattern
       patternUnits="userSpaceOnUse"
       width="512"
       height="512"
       id="pattern3218-0"><rect
         id="rect3216-6"
         y="0"
         x="0"
         height="512"
         width="512"
         style="fill:url(#pattern3221-3);stroke:none" /></pattern><pattern
       inkscape:collect="always"
       xlink:href="#pattern3211-2"
       id="pattern3221-3" /><pattern
       patternUnits="userSpaceOnUse"
       width="512"
       height="512"
       id="pattern3211-2"><rect
         id="rect1921-0"
         y="0"
         x="0"
         height="512"
         width="512"
         style="fill:url(#pattern3214-6);stroke:none" /></pattern><pattern
       inkscape:collect="always"
       xlink:href="#pattern1894-1"
       id="pattern3214-6" /><pattern
       patternUnits="userSpaceOnUse"
       width="512"
       height="512"
       id="pattern1894-1" /><clipPath
       id="patternClipPath-1"
       clipPathUnits="userSpaceOnUse"><rect
         style="color:#000000;display:inline;overflow:visible;visibility:visible;opacity:1;fill:#ffff00;fill-opacity:1;fill-rule:nonzero;stroke:none;stroke-width:20;stroke-linecap:square;stroke-linejoin:miter;stroke-miterlimit:4;stroke-dasharray:none;stroke-dashoffset:1.09889996;stroke-opacity:1;marker:none;enable-background:accumulate"
         id="clipPathRect-4"
         width="512"
         height="512"
         x="0"
         y="0" /></clipPath></defs><sodipodi:namedview
     pagecolor="#ffffff"
     bordercolor="#666666"
     borderopacity="1"
     objecttolerance="10"
     gridtolerance="10"
     guidetolerance="10"
     inkscape:pageopacity="0"
     inkscape:pageshadow="2"
     inkscape:window-width="1301"
     inkscape:window-height="744"
     id="namedview4"
     showgrid="false"
     units="mm"
     inkscape:showpageshadow="false"
     inkscape:snap-grids="false"
     inkscape:snap-page="true"
     showguides="false"
     inkscape:zoom="1.3944245"
     inkscape:cx="350.01645"
     inkscape:cy="555.08091"
     inkscape:window-x="65"
     inkscape:window-y="24"
     inkscape:window-maximized="1"
     inkscape:current-layer="layer1"><sodipodi:guide
       position="57.371337,740.09025"
       orientation="0,1"
       id="guide2859"
       inkscape:locked="false" /></sodipodi:namedview><g
     id="g10"
     inkscape:groupmode="layer"
     inkscape:label="Folded_Card_Vertical"
     transform="matrix(1.3333333,0,0,-1.3333333,0,827.716)"
     style="display:none" /><g
     inkscape:groupmode="layer"
     id="layer2"
     inkscape:label="bg"
     style="display:inline"><rect
       style="fill:#018e41;fill-opacity:1;fill-rule:evenodd;stroke:none;stroke-width:3.58413935;stroke-linecap:round;stroke-linejoin:miter;stroke-miterlimit:10;stroke-dasharray:none;stroke-dashoffset:0;stroke-opacity:1"
       id="rect2833"
       width="67.086617"
       height="827.71655"
       x="0"
       y="0" /><rect
       y="0"
       x="67.086617"
       height="827.71655"
       width="67.086617"
       id="rect1655"
       style="fill:#3ab54a;fill-opacity:1;fill-rule:evenodd;stroke:none;stroke-width:3.58413935;stroke-linecap:round;stroke-linejoin:miter;stroke-miterlimit:10;stroke-dasharray:none;stroke-dashoffset:0;stroke-opacity:1" /><rect
       style="fill:#019042;fill-opacity:1;fill-rule:evenodd;stroke:none;stroke-width:3.58413935;stroke-linecap:round;stroke-linejoin:miter;stroke-miterlimit:10;stroke-dasharray:none;stroke-dashoffset:0;stroke-opacity:1"
       id="rect1657"
       width="67.086617"
       height="827.71655"
       x="134.17323"
       y="0" /><rect
       y="0"
       x="201.25984"
       height="827.71655"
       width="67.086617"
       id="rect1659"
       style="fill:#3ab54a;fill-opacity:1;fill-rule:evenodd;stroke:none;stroke-width:3.58413935;stroke-linecap:round;stroke-linejoin:miter;stroke-miterlimit:10;stroke-dasharray:none;stroke-dashoffset:0;stroke-opacity:1" /><rect
       style="fill:#019042;fill-opacity:1;fill-rule:evenodd;stroke:none;stroke-width:3.58413935;stroke-linecap:round;stroke-linejoin:miter;stroke-miterlimit:10;stroke-dasharray:none;stroke-dashoffset:0;stroke-opacity:1"
       id="rect1661"
       width="67.086617"
       height="827.71655"
       x="268.34647"
       y="0" /><rect
       y="0"
       x="335.43307"
       height="827.71655"
       width="67.086617"
       id="rect1663"
       style="fill:#3ab54a;fill-opacity:1;fill-rule:evenodd;stroke:none;stroke-width:3.58413935;stroke-linecap:round;stroke-linejoin:miter;stroke-miterlimit:10;stroke-dasharray:none;stroke-dashoffset:0;stroke-opacity:1" /><rect
       style="fill:#019042;fill-opacity:1;fill-rule:evenodd;stroke:none;stroke-width:3.58413935;stroke-linecap:round;stroke-linejoin:miter;stroke-miterlimit:10;stroke-dasharray:none;stroke-dashoffset:0;stroke-opacity:1"
       id="rect1665"
       width="67.086617"
       height="827.71655"
       x="402.51968"
       y="0" /><rect
       y="0"
       x="469.60629"
       height="827.71655"
       width="67.086617"
       id="rect1667"
       style="fill:#3ab54a;fill-opacity:1;fill-rule:evenodd;stroke:none;stroke-width:3.58413935;stroke-linecap:round;stroke-linejoin:miter;stroke-miterlimit:10;stroke-dasharray:none;stroke-dashoffset:0;stroke-opacity:1" /></g><g
     inkscape:groupmode="layer"
     id="layer1"
     inkscape:label="pitch"
     style="display:inline"><rect
       style="fill:#e3c86f;fill-opacity:1;fill-rule:evenodd;stroke:#d4a15f;stroke-width:4.55507088;stroke-linecap:round;stroke-linejoin:miter;stroke-miterlimit:10;stroke-dasharray:none;stroke-dashoffset:0;stroke-opacity:1"
       id="rect2830"
       width="448.98822"
       height="740.01184"
       x="43.852345"
       y="43.852356" /><g
       style="display:inline"
       transform="matrix(1.3333333,0,0,-1.3333333,266.16315,507.14601)"
       id="g2116"><path
         inkscape:connector-curvature="0"
         id="path2118"
         style="fill:#231f20;fill-opacity:1;fill-rule:evenodd;stroke:none"
         d="m 0,0 c 102.32,0 185.775,83.455 185.775,185.777 0,102.324 -83.455,185.777 -185.775,185.777 -102.323,0 -185.778,-83.453 -185.778,-185.777 C -185.778,83.455 -102.323,0 0,0" /></g><g
       style="display:inline"
       transform="matrix(1.3333333,0,0,-1.3333333,205.32984,335.24695)"
       id="g2120"><path
         inkscape:connector-curvature="0"
         id="path2122"
         style="fill:#6b1c1c;fill-opacity:1;fill-rule:evenodd;stroke:none"
         d="M 0,0 C 3.8,-1.139 7.938,-2.059 12.435,-2.747 9.004,0.189 6.091,3.445 3.739,6.456 2.278,4.797 1.041,2.604 0,0" /></g><g
       style="display:inline"
       transform="matrix(1.3333333,0,0,-1.3333333,145.98597,195.34336)"
       id="g2124"><path
         inkscape:connector-curvature="0"
         id="path2126"
         style="fill:#6b1c1c;fill-opacity:1;fill-rule:evenodd;stroke:none"
         d="m 0,0 c 0.586,37.242 4.655,65.572 42.652,78.823 43.986,11.365 85.502,-19.574 92.859,-62.626 5.961,-1.61 7.874,-7.054 7.019,-15.116 C 108.899,19.609 30.628,-4.494 6.479,-26.994 l -11.878,11.878 z" /></g><g
       style="display:inline"
       transform="matrix(1.3333333,0,0,-1.3333333,344.67875,286.88495)"
       id="g2128"><path
         inkscape:connector-curvature="0"
         id="path2130"
         style="fill:#ffffff;fill-opacity:1;fill-rule:evenodd;stroke:none"
         d="m 0,0 c -0.646,-9.151 -4.765,-16.823 -16.65,-25.254 -12.418,-8.806 -28.821,-14.354 -41.593,-14.954 h -0.009 c -23.555,-1.284 -41.39,1.153 -54.195,6.858 -3.609,1.607 -6.917,3.687 -9.883,6.108 19.404,11.654 39.355,19.543 59.798,23.976 C -42.167,1.149 -21.305,2.136 0,0 m -135.812,-2.403 c 8.395,6.551 45.874,32.218 121.034,35.144 l 0.02,-2.449 C -12.275,22.467 -7.926,18.65 -1.709,18.839 -0.748,13.157 0.013,8.136 0.09,3.524 c -21.582,2.14 -42.721,1.127 -63.362,-3.349 -21.135,-4.582 -41.757,-12.799 -61.813,-24.98 -5.611,5.38 -9.737,12.01 -12.028,18.768 0.471,1.154 0.903,2.363 1.301,3.634 m 133.457,97.942 -14.491,2.356 c 1.429,-4.117 2.556,-8.454 3.337,-13.042 5.961,-1.609 7.874,-7.054 7.02,-15.116 l -8.537,-9.52 0.215,-23.964 C -90.682,33.358 -126.351,8.984 -134.525,2.531 c 1.668,7.794 2.152,17.507 1.143,29.649 l -14.832,11.592 4.045,9.976 1.347,7.818 -6.198,7.09 -8.088,-5.472 v -13.21 l -5.123,-4.313 -0.81,-10.786 c 8.943,-8.67 14.425,-22.78 18.335,-39.363 l 4.085,-2.124 c 3.984,-12.264 13.416,-24.01 26.742,-29.944 13.317,-5.931 31.686,-8.478 55.807,-7.162 13.366,0.631 30.509,6.417 43.457,15.601 C 8.102,-12.003 5.229,-0.556 1.474,21.026 1.852,35.907 0.758,50.051 -2.893,62.915 l 4.851,11.863 z" /></g><g
       style="display:inline;fill:#425fff;fill-opacity:1"
       transform="matrix(1.3333333,0,0,-1.3333333,297.15265,389.70068)"
       id="g2132"><path
         inkscape:connector-curvature="0"
         id="path2134"
         style="fill:#425fff;fill-opacity:1;fill-rule:evenodd;stroke:none"
         d="M 0,0 24.297,16.736 63.168,-12.417 C 61.882,8.866 64.828,31.449 72.889,55.607 81.124,72.377 33.37,86.664 38.245,68.776 37.09,43.424 7.895,25.083 0,0" /></g><g
       style="display:inline"
       transform="matrix(1.3333333,0,0,-1.3333333,176.60717,275.76069)"
       id="g2136"><path
         inkscape:connector-curvature="0"
         id="path2138"
         style="fill:#231f20;fill-opacity:1;fill-rule:evenodd;stroke:none"
         d="M 0,0 C 3.064,1.868 6.845,3.972 11.386,6.167 9.103,13.54 6.552,20.994 3.187,28.689 2.319,37.173 4.684,44.222 10.291,49.832 -0.997,44.69 -10.437,38.955 -16.487,33.319 l -4.643,4.645 -1.03,-2.535 14.832,-11.593 C -6.827,17.818 -6.697,12.398 -6.889,7.512 -4.655,5.463 -2.348,2.912 0,0" /></g><g
       style="display:inline"
       transform="matrix(1.3333333,0,0,-1.3333333,193.26864,272.39415)"
       id="g2140"><path
         inkscape:connector-curvature="0"
         id="path2142"
         style="fill:#231f20;fill-opacity:1;fill-rule:evenodd;stroke:none"
         d="m 0,0 c -3.919,-1.868 -7.337,-3.682 -10.267,-5.367 4.798,-6.293 9.762,-13.851 14.739,-21.482 1.074,0.533 2.148,1.054 3.222,1.566 C 4.821,-16.764 2.526,-8.417 0,0" /></g><g
       style="display:inline"
       transform="matrix(1.3333333,0,0,-1.3333333,201.09144,312.49828)"
       id="g2144"><path
         inkscape:connector-curvature="0"
         id="path2146"
         style="fill:#231f20;fill-opacity:1;fill-rule:evenodd;stroke:none"
         d="m 0,0 c 0,0 5.628,-11.257 15.613,-19.808 3.854,-0.592 7.971,-1.013 12.354,-1.261 C 11.544,-11.383 3.805,1.845 3.805,1.845 2.535,1.245 1.266,0.631 0,0" /></g><g
       style="display:inline"
       transform="matrix(1.3333333,0,0,-1.3333333,314.47035,280.75415)"
       id="g2148"><path
         inkscape:connector-curvature="0"
         id="path2150"
         style="fill:#231f20;fill-opacity:1;fill-rule:evenodd;stroke:none"
         d="m 0,0 c 3.247,0.02 6.499,-0.037 9.766,-0.167 0.602,3.155 1.128,6.091 1.571,8.671 0.667,3.855 1.147,6.907 1.424,8.696 -1.741,1.619 -3.17,3.902 -4.289,6.85 -0.2,0.527 -0.391,1.074 -0.574,1.643 l -0.02,2.454 C 6.426,28.092 4.993,28.027 3.569,27.954 3.023,22.652 1.836,11.979 0,0" /></g><g
       style="display:inline"
       transform="matrix(1.3333333,0,0,-1.3333333,305.53555,185.62656)"
       id="g2152"><path
         inkscape:connector-curvature="0"
         id="path2154"
         style="fill:#231f20;fill-opacity:1;fill-rule:evenodd;stroke:none"
         d="m 0,0 10.616,-39.856 c 1.298,0.063 2.609,0.12 3.931,0.171 l -0.216,23.958 8.537,9.52 C 16.589,-2.749 8.752,-0.775 0,0" /></g><g
       style="display:inline"
       transform="matrix(1.3333333,0,0,-1.3333333,337.38185,286.24495)"
       id="g2156"><path
         inkscape:connector-curvature="0"
         id="path2158"
         style="fill:#f7e4be;fill-opacity:1;fill-rule:evenodd;stroke:none"
         d="m 0,0 c -2.706,0.204 -5.407,0.356 -8.097,0.458 -1.843,-9.316 -8.501,-22.142 -11.303,-30.992 1.362,0.841 6.937,3.886 8.222,4.8 C -1.656,-18.98 2.885,-12.711 4.643,-5.78 2.869,-3.983 1.335,-2.03 0,0" /></g><g
       style="display:inline"
       transform="matrix(1.3333333,0,0,-1.3333333,327.49135,280.97682)"
       id="g2160"><path
         inkscape:connector-curvature="0"
         id="path2162"
         style="fill:#f7e4be;fill-opacity:1;fill-rule:evenodd;stroke:none"
         d="M 0,0 C 1.75,-0.069 3.5,-0.163 5.254,-0.275 3.679,2.718 2.482,5.776 1.571,8.671 1.128,6.091 0.603,3.155 0,0" /></g><g
       style="display:inline"
       transform="matrix(1.3333333,0,0,-1.3333333,228.04465,344.43442)"
       id="g2164"><path
         inkscape:connector-curvature="0"
         id="path2166"
         style="fill:#f7e4be;fill-opacity:1;fill-rule:evenodd;stroke:none"
         d="M 0,0 16.643,-26.839 17.18,-43.286 31.738,-58.384 51.831,-33.95 C 59.726,-8.866 88.921,9.475 90.076,34.827 87.879,28.298 82.837,22.121 72.86,15.045 59.912,5.861 42.77,0.075 29.403,-0.556 18.433,-1.156 8.655,-0.954 0,0" /></g><g
       style="display:inline"
       transform="matrix(1.3333333,0,0,-1.3333333,226.50424,392.08548)"
       id="g2168"><path
         inkscape:connector-curvature="0"
         id="path2170"
         style="fill:#6b1c1c;fill-opacity:1;fill-rule:evenodd;stroke:none"
         d="M 0,0 18.335,-7.548 17.798,8.899 1.155,35.738 c -6.733,0.743 -12.784,1.941 -18.192,3.575 -8.402,-27.647 0.061,-87.822 3.019,-74.093 C -10.624,-19.022 -6.267,-6.407 0,0" /></g><g
       style="display:inline"
       transform="matrix(1.3333333,0,0,-1.3333333,286.04715,342.20722)"
       id="g2172"><path
         inkscape:connector-curvature="0"
         id="path2174"
         style="fill:#231f20;fill-opacity:1;fill-rule:evenodd;stroke:none"
         d="m 0,0 c -4.919,-1.257 -9.713,-2.021 -14.099,-2.226 -5.668,-0.309 -11.014,-0.405 -16.056,-0.295 1.542,-4.134 5.298,-8.409 14.347,-7.387 C -2.226,-7.41 0.354,-3.416 0,0" /></g><g
       style="display:inline"
       transform="matrix(1.3333333,0,0,-1.3333333,191.7881,267.53802)"
       id="g2176"><path
         inkscape:connector-curvature="0"
         id="path2178"
         style="fill:#f7e4be;fill-opacity:1;fill-rule:evenodd;stroke:none"
         d="M 0,0 C 18.412,8.901 49.349,19.307 95.927,21.578 L 85.311,61.434 C 58.939,63.77 24.268,55.218 -1.095,43.665 -6.702,38.055 -9.066,31.006 -8.199,22.522 -4.834,14.827 -2.283,7.373 0,0" /></g><g
       style="display:inline"
       transform="matrix(1.3333333,0,0,-1.3333333,319.22955,243.48202)"
       id="g2180"><path
         inkscape:connector-curvature="0"
         id="path2182"
         style="fill:#f7e4be;fill-opacity:1;fill-rule:evenodd;stroke:none"
         d="m 0,0 c -44.576,-2.291 -75.436,-12.606 -94.471,-21.684 2.527,-8.417 4.822,-16.764 7.695,-25.283 13.944,6.631 28.145,11.459 42.59,14.59 13.338,2.893 26.88,4.339 40.617,4.423 C -1.733,-15.975 -0.546,-5.302 0,0" /></g><g
       style="display:inline"
       transform="matrix(1.3333333,0,0,-1.3333333,313.73865,285.45002)"
       id="g2184"><path
         inkscape:connector-curvature="0"
         id="path2186"
         style="fill:#f7e4be;fill-opacity:1;fill-rule:evenodd;stroke:none"
         d="m 0,0 c -13.302,-0.122 -26.412,-1.542 -39.327,-4.342 -14.022,-3.039 -27.812,-7.706 -41.354,-14.099 0,0 7.74,-13.228 24.162,-22.914 6.551,-0.371 13.701,-0.353 21.481,0.071 8.333,0.39 18.209,2.887 27.518,7.021 C -4.402,-24.445 -1.9,-11.798 0,0 m -35.038,-41.284 z" /></g><g
       style="display:inline"
       transform="matrix(1.3333333,0,0,-1.3333333,181.39224,225.48655)"
       id="g2188"><path
         inkscape:connector-curvature="0"
         id="path2190"
         style="fill:#d1c1a1;fill-opacity:1;fill-rule:evenodd;stroke:none"
         d="m 0,0 c 16.887,7.245 66.586,27.303 94.377,25.134 l -1.27,4.761 C 66.736,32.231 32.064,23.68 6.702,12.126 3.219,8.639 0.984,4.598 0,0" /></g><g
       style="display:inline"
       transform="matrix(1.3333333,0,0,-1.3333333,319.22955,243.48202)"
       id="g2192"><path
         inkscape:connector-curvature="0"
         id="path2194"
         style="fill:#d1c1a1;fill-opacity:1;fill-rule:evenodd;stroke:none"
         d="m 0,0 c -44.576,-2.297 -75.436,-12.61 -94.471,-21.684 0.261,-0.869 0.517,-1.735 0.774,-2.602 18.692,9.047 49.21,19.48 93.457,22.003 C -0.151,-1.44 -0.069,-0.678 0,0" /></g><g
       style="display:inline"
       transform="matrix(1.3333333,0,0,-1.3333333,261.30255,291.23909)"
       id="g2196"><path
         inkscape:connector-curvature="0"
         id="path2198"
         style="fill:#d1c1a1;fill-opacity:1;fill-rule:evenodd;stroke:none"
         d="m 0,0 c -14.021,-3.04 -27.812,-7.707 -41.354,-14.099 0,0 0.493,-0.842 1.494,-2.254 13.594,6.433 27.437,11.124 41.516,14.178 12.26,2.659 24.699,4.073 37.309,4.311 0.122,0.737 0.244,1.473 0.362,2.206 C 26.025,4.22 12.915,2.8 0,0" /></g><g
       style="display:inline"
       transform="matrix(1.3333333,0,0,-1.3333333,326.58625,285.63429)"
       id="g2200"><path
         inkscape:connector-curvature="0"
         id="path2202"
         style="fill:#231f20;fill-opacity:1;fill-rule:evenodd;stroke:none"
         d="m 0,0 c -3.223,0.12 -6.434,0.165 -9.636,0.138 -1.9,-11.798 -9.383,-30.709 -16.532,-37.703 3.479,1.546 11.653,4.594 14.864,6.573 C -6.751,-25.503 -1.844,-9.316 0,0" /></g><g
       style="display:inline"
       transform="matrix(1.3333333,0,0,-1.3333333,232.97695,167.41042)"
       id="g2204"><path
         inkscape:connector-curvature="0"
         id="path2206"
         style="fill:#fff200;fill-opacity:1;fill-rule:evenodd;stroke:none"
         d="m 0,0 c -4.065,0 -5.9,0.956 -9.168,2.966 -0.936,0.576 -4.846,4.085 -5.118,4.852 -1.148,3.172 -2.967,2.721 -2.967,-0.539 0,-4.923 -5.595,0.869 -0.81,4.852 2.438,2.035 -0.195,7.898 -0.541,11.593 -0.358,3.862 -0.358,0.549 0,-0.807 0.427,-1.605 2.531,-3.758 3.777,-4.045 2.095,-0.482 0.809,0.417 0.809,2.427 0,1.748 2.157,10.639 2.157,5.932 0,-1.842 0.801,-5.655 1.887,-6.742 0.192,-0.191 0.449,2.909 3.236,2.698 3.316,-0.254 6.791,-7.072 2.156,-8.36 -3.08,-0.854 -5.664,0.983 -5.664,-2.156 0,-3.709 4.993,-6.865 7.548,-8.627 C -1.375,3.131 1.294,4.156 2.156,2.427 3.45,-0.161 0.562,-2.031 0,0" /></g><g
       style="display:inline"
       transform="matrix(1.3333333,0,0,-1.3333333,232.39625,147.61349)"
       id="g2208"><path
         inkscape:connector-curvature="0"
         id="path2210"
         style="fill:#fff200;fill-opacity:1;fill-rule:evenodd;stroke:none"
         d="M 0,0 C 0.464,1.243 1.277,3.424 0.806,4.84 0.492,5.786 0.301,5.888 1.611,5.514 4.167,4.783 4.513,5.666 5.514,3.361 5.745,2.826 5.717,0.795 5.916,0.537 c 0.814,-1.06 1.701,-2.509 2.959,-3.361 1.167,-0.793 2.262,-1.614 3.092,-2.555 0.586,-0.662 0.191,-1.803 -0.537,-1.075 -0.806,0.802 -1.139,2.263 -2.555,2.554 -2.368,0.49 -3.008,1.884 -6.051,1.884 -0.651,0 -1.876,-0.171 -2.421,0.134 C -0.231,-1.53 -1.029,0.134 0,0" /></g><g
       style="display:inline"
       transform="matrix(1.3333333,0,0,-1.3333333,324.01465,162.14802)"
       id="g2212"><path
         inkscape:connector-curvature="0"
         id="path2214"
         style="fill:#4f1111;fill-opacity:1;fill-rule:evenodd;stroke:none"
         d="m 0,0 c -40.76,-0.671 -83.383,-6.893 -127.324,-31.986 l -1.347,-7.819 c 42.184,21.332 85.6,32.78 130.66,31.105 C 1.981,-8.653 1.978,-8.604 1.965,-8.557 1.456,-5.603 0.806,-2.753 0.02,0 Z M 1.989,-8.7 1.965,-8.557 C 1.978,-8.604 1.981,-8.653 1.989,-8.7" /></g><g
       style="display:inline;fill:#42f5ff;fill-opacity:1"
       transform="matrix(1.3333333,0,0,-1.3333333,381.37665,406.25668)"
       id="g2216"><path
         inkscape:connector-curvature="0"
         id="path2218"
         style="fill:#42f5ff;fill-opacity:1;fill-rule:evenodd;stroke:none"
         d="m 0,0 -38.871,29.153 -24.297,-16.736 -20.093,-24.435 -14.558,15.099 -18.335,7.547 c -6.267,-6.406 -10.624,-19.022 -14.018,-34.779 -2.279,-10.578 -7.825,22.709 -6.409,51.194 0,0 -40.934,-37.598 -64.84,-62.83 31.637,-24.973 71.587,-39.88 115.011,-39.88 85.092,0 156.845,57.245 178.838,135.315 C 53.435,57.402 9.721,68.024 9.721,68.024 1.66,43.866 -1.286,21.283 0,0" /></g><g
       style="display:inline"
       transform="matrix(1.3333333,0,0,-1.3333333,329.63455,381.38108)"
       id="g2220"><path
         inkscape:connector-curvature="0"
         id="path2222"
         style="fill:#d7be2e;fill-opacity:1;fill-rule:evenodd;stroke:none"
         d="M 0,0 27.768,-32.353 28.564,-10.976 -0.064,10.496 -24.361,-6.24 Z" /></g><g
       style="display:inline"
       transform="matrix(1.3333333,0,0,-1.3333333,214.60064,442.13428)"
       id="g2224"><path
         inkscape:connector-curvature="0"
         id="path2226"
         style="fill:#d7be2e;fill-opacity:1;fill-rule:evenodd;stroke:none"
         d="M 0,0 C 1.982,15.55 5.652,27.232 12.671,31.274 L 32.04,25.035 27.263,29.989 8.928,37.537 C 3.951,32.446 0.18,23.441 -2.864,12.057 Z" /></g><g
       style="display:inline"
       transform="matrix(1.3333333,0,0,-1.3333333,424.86625,100.73589)"
       id="g2228"><path
         inkscape:connector-curvature="0"
         id="path2230"
         style="fill:#fff200;fill-opacity:1;fill-rule:nonzero;stroke:none"
         d="m 0,0 c -30.465,30.465 -72.551,49.311 -119.027,49.311 -46.481,0 -88.566,-18.846 -119.031,-49.311 -30.464,-30.467 -49.312,-72.552 -49.312,-119.031 0,-46.478 18.848,-88.564 49.312,-119.029 30.465,-30.464 72.55,-49.312 119.031,-49.312 46.476,0 88.562,18.848 119.027,49.312 30.465,30.465 49.313,72.551 49.313,119.029 C 49.313,-72.552 30.465,-30.467 0,0 m -119.027,52.834 c 47.449,0 90.418,-19.24 121.517,-50.344 31.104,-31.103 50.346,-74.07 50.346,-121.521 0,-47.45 -19.242,-90.417 -50.346,-121.521 -31.099,-31.101 -74.068,-50.344 -121.517,-50.344 -47.452,0 -90.421,19.243 -121.521,50.344 -31.103,31.104 -50.346,74.071 -50.346,121.521 0,47.451 19.243,90.418 50.346,121.521 31.1,31.104 74.069,50.344 121.521,50.344" /></g></g></svg>